<mxfile host="app.diagrams.net" agent="Mozilla/5.0 (Windows NT 10.0; Win64; x64) AppleWebKit/537.36 (KHTML, like Gecko) Chrome/125.0.0.0 Safari/537.36" version="24.7.16">
  <diagram id="mHFnT_LbZJntr-yN_MIP" name="Page-1">
    <mxGraphModel dx="1839" dy="1614" grid="1" gridSize="10" guides="1" tooltips="1" connect="1" arrows="1" fold="1" page="1" pageScale="1" pageWidth="850" pageHeight="1100" math="0" shadow="0">
      <root>
        <mxCell id="0" />
        <mxCell id="1" parent="0" />
        <mxCell id="c7biSZGZnNbLbAdj1jw6-103" value="" style="group" parent="1" connectable="0" vertex="1">
          <mxGeometry x="254.98999999999998" y="-1035" width="80.00000000000003" height="960" as="geometry" />
        </mxCell>
        <mxCell id="c7biSZGZnNbLbAdj1jw6-76" value="" style="rounded=0;whiteSpace=wrap;html=1;shadow=0;glass=0;sketch=0;fillColor=#F0F5F7;" parent="c7biSZGZnNbLbAdj1jw6-103" vertex="1">
          <mxGeometry width="80" height="960" as="geometry" />
        </mxCell>
        <mxCell id="c7biSZGZnNbLbAdj1jw6-77" value="ID/EX" style="swimlane;fillColor=#25607D;strokeColor=#9673a6;shadow=0;glass=0;sketch=0;rounded=0;fontColor=#F0F5F7;" parent="c7biSZGZnNbLbAdj1jw6-103" vertex="1">
          <mxGeometry width="80.00000000000003" height="960" as="geometry" />
        </mxCell>
        <mxCell id="c7biSZGZnNbLbAdj1jw6-97" value="PC + 4" style="text;html=1;align=center;verticalAlign=middle;resizable=0;points=[];autosize=1;strokeColor=none;fillColor=none;" parent="c7biSZGZnNbLbAdj1jw6-77" vertex="1">
          <mxGeometry x="15" y="889.9973684210524" width="50" height="20" as="geometry" />
        </mxCell>
        <mxCell id="c7biSZGZnNbLbAdj1jw6-98" value="Rd" style="text;html=1;align=center;verticalAlign=middle;resizable=0;points=[];autosize=1;strokeColor=none;fillColor=none;" parent="c7biSZGZnNbLbAdj1jw6-77" vertex="1">
          <mxGeometry x="25" y="850" width="30" height="20" as="geometry" />
        </mxCell>
        <mxCell id="c7biSZGZnNbLbAdj1jw6-84" value="Imm" style="text;html=1;align=center;verticalAlign=middle;resizable=0;points=[];autosize=1;strokeColor=none;fillColor=none;" parent="c7biSZGZnNbLbAdj1jw6-77" vertex="1">
          <mxGeometry x="20" y="670" width="40" height="20" as="geometry" />
        </mxCell>
        <mxCell id="c7biSZGZnNbLbAdj1jw6-86" value="ALUOp" style="text;html=1;align=center;verticalAlign=middle;resizable=0;points=[];autosize=1;strokeColor=none;fillColor=none;" parent="c7biSZGZnNbLbAdj1jw6-77" vertex="1">
          <mxGeometry x="15" y="315.00105263157894" width="50" height="20" as="geometry" />
        </mxCell>
        <mxCell id="c7biSZGZnNbLbAdj1jw6-90" value="RegWrite" style="text;html=1;align=center;verticalAlign=middle;resizable=0;points=[];autosize=1;strokeColor=none;fillColor=none;" parent="c7biSZGZnNbLbAdj1jw6-77" vertex="1">
          <mxGeometry x="5" y="235.0068421052631" width="70" height="20" as="geometry" />
        </mxCell>
        <mxCell id="c7biSZGZnNbLbAdj1jw6-95" value="Halt" style="text;html=1;align=center;verticalAlign=middle;resizable=0;points=[];autosize=1;strokeColor=none;fillColor=none;" parent="c7biSZGZnNbLbAdj1jw6-77" vertex="1">
          <mxGeometry x="20" y="194.99947368421044" width="40" height="20" as="geometry" />
        </mxCell>
        <mxCell id="c7biSZGZnNbLbAdj1jw6-87" value="ALUSrc" style="text;html=1;align=center;verticalAlign=middle;resizable=0;points=[];autosize=1;strokeColor=none;fillColor=none;" parent="c7biSZGZnNbLbAdj1jw6-77" vertex="1">
          <mxGeometry x="10" y="334.9978947368421" width="60" height="20" as="geometry" />
        </mxCell>
        <mxCell id="c7biSZGZnNbLbAdj1jw6-92" value="MemWrite" style="text;html=1;align=center;verticalAlign=middle;resizable=0;points=[];autosize=1;strokeColor=none;fillColor=none;" parent="c7biSZGZnNbLbAdj1jw6-77" vertex="1">
          <mxGeometry x="5" y="294.99736842105267" width="70" height="20" as="geometry" />
        </mxCell>
        <mxCell id="c7biSZGZnNbLbAdj1jw6-94" value="Movn" style="text;html=1;align=center;verticalAlign=middle;resizable=0;points=[];autosize=1;strokeColor=none;fillColor=none;" parent="c7biSZGZnNbLbAdj1jw6-77" vertex="1">
          <mxGeometry x="20" y="255.00315789473683" width="40" height="20" as="geometry" />
        </mxCell>
        <mxCell id="P_-k0MPRVzmCdLMRWgzc-48" value="Jump" style="text;html=1;align=center;verticalAlign=middle;resizable=0;points=[];autosize=1;strokeColor=none;fillColor=none;fontColor=#000000;" parent="c7biSZGZnNbLbAdj1jw6-77" vertex="1">
          <mxGeometry x="20.00000000000003" y="135" width="40" height="20" as="geometry" />
        </mxCell>
        <mxCell id="c7biSZGZnNbLbAdj1jw6-96" value="Clock" style="text;html=1;align=center;verticalAlign=middle;resizable=0;points=[];autosize=1;strokeColor=none;fillColor=none;" parent="c7biSZGZnNbLbAdj1jw6-103" vertex="1">
          <mxGeometry x="15" y="922.1052631578946" width="50" height="20" as="geometry" />
        </mxCell>
        <mxCell id="c7biSZGZnNbLbAdj1jw6-85" value="CONTROL" style="text;html=1;align=center;verticalAlign=middle;resizable=0;points=[];autosize=1;strokeColor=none;fillColor=none;fontStyle=1" parent="c7biSZGZnNbLbAdj1jw6-103" vertex="1">
          <mxGeometry x="5" y="30.00473684210526" width="70" height="20" as="geometry" />
        </mxCell>
        <mxCell id="c7biSZGZnNbLbAdj1jw6-83" value="Read_Rs" style="text;html=1;align=center;verticalAlign=middle;resizable=0;points=[];autosize=1;strokeColor=none;fillColor=none;" parent="c7biSZGZnNbLbAdj1jw6-103" vertex="1">
          <mxGeometry x="5" y="360" width="70" height="20" as="geometry" />
        </mxCell>
        <mxCell id="c7biSZGZnNbLbAdj1jw6-82" value="Read_Rt" style="text;html=1;align=center;verticalAlign=middle;resizable=0;points=[];autosize=1;strokeColor=none;fillColor=none;" parent="c7biSZGZnNbLbAdj1jw6-103" vertex="1">
          <mxGeometry x="10" y="420" width="60" height="20" as="geometry" />
        </mxCell>
        <mxCell id="c7biSZGZnNbLbAdj1jw6-88" value="MemtoReg" style="text;html=1;align=center;verticalAlign=middle;resizable=0;points=[];autosize=1;strokeColor=none;fillColor=none;" parent="c7biSZGZnNbLbAdj1jw6-103" vertex="1">
          <mxGeometry x="5" y="275.00368421052633" width="70" height="20" as="geometry" />
        </mxCell>
        <mxCell id="c7biSZGZnNbLbAdj1jw6-101" value="Shamt" style="text;html=1;align=center;verticalAlign=middle;resizable=0;points=[];autosize=1;strokeColor=none;fillColor=none;" parent="c7biSZGZnNbLbAdj1jw6-103" vertex="1">
          <mxGeometry x="15" y="539.9994736842104" width="50" height="20" as="geometry" />
        </mxCell>
        <mxCell id="P_-k0MPRVzmCdLMRWgzc-47" value="BranchEq" style="text;html=1;align=center;verticalAlign=middle;resizable=0;points=[];autosize=1;strokeColor=none;fillColor=none;fontColor=#000000;" parent="c7biSZGZnNbLbAdj1jw6-103" vertex="1">
          <mxGeometry x="5.000000000000028" y="75" width="70" height="20" as="geometry" />
        </mxCell>
        <mxCell id="P_-k0MPRVzmCdLMRWgzc-46" value="Branch" style="text;html=1;align=center;verticalAlign=middle;resizable=0;points=[];autosize=1;strokeColor=none;fillColor=none;fontColor=#000000;" parent="c7biSZGZnNbLbAdj1jw6-103" vertex="1">
          <mxGeometry x="15.000000000000028" y="55" width="50" height="20" as="geometry" />
        </mxCell>
        <mxCell id="P_-k0MPRVzmCdLMRWgzc-49" value="JumpReg" style="text;html=1;align=center;verticalAlign=middle;resizable=0;points=[];autosize=1;strokeColor=none;fillColor=none;fontColor=#000000;" parent="c7biSZGZnNbLbAdj1jw6-103" vertex="1">
          <mxGeometry x="5.000000000000028" y="115" width="70" height="20" as="geometry" />
        </mxCell>
        <mxCell id="P_-k0MPRVzmCdLMRWgzc-52" value="JumpImm" style="text;html=1;align=center;verticalAlign=middle;resizable=0;points=[];autosize=1;strokeColor=none;fillColor=none;fontColor=#000000;" parent="c7biSZGZnNbLbAdj1jw6-103" vertex="1">
          <mxGeometry x="5.000000000000028" y="155" width="70" height="20" as="geometry" />
        </mxCell>
        <mxCell id="c7biSZGZnNbLbAdj1jw6-74" value="" style="group" parent="1" connectable="0" vertex="1">
          <mxGeometry x="-265.01" y="-1035" width="80" height="960" as="geometry" />
        </mxCell>
        <mxCell id="c7biSZGZnNbLbAdj1jw6-73" value="" style="rounded=0;whiteSpace=wrap;html=1;shadow=0;glass=0;sketch=0;fillColor=#F0F5F7;" parent="c7biSZGZnNbLbAdj1jw6-74" vertex="1">
          <mxGeometry width="80" height="960" as="geometry" />
        </mxCell>
        <mxCell id="c7biSZGZnNbLbAdj1jw6-1" value="IF/ID" style="swimlane;fillColor=#25607D;strokeColor=#9673a6;shadow=0;glass=0;sketch=0;rounded=0;fontColor=#F0F5F7;" parent="c7biSZGZnNbLbAdj1jw6-74" vertex="1">
          <mxGeometry width="80" height="960" as="geometry" />
        </mxCell>
        <mxCell id="c7biSZGZnNbLbAdj1jw6-4" value="&lt;div&gt;IF_Flush&lt;/div&gt;" style="text;html=1;align=center;verticalAlign=middle;resizable=0;points=[];autosize=1;strokeColor=none;fillColor=none;" parent="c7biSZGZnNbLbAdj1jw6-1" vertex="1">
          <mxGeometry x="10" y="30.000526315789443" width="60" height="20" as="geometry" />
        </mxCell>
        <mxCell id="c7biSZGZnNbLbAdj1jw6-5" value="Clock" style="text;html=1;align=center;verticalAlign=middle;resizable=0;points=[];autosize=1;strokeColor=none;fillColor=none;" parent="c7biSZGZnNbLbAdj1jw6-74" vertex="1">
          <mxGeometry x="15" y="931.5789473684209" width="50" height="20" as="geometry" />
        </mxCell>
        <mxCell id="c7biSZGZnNbLbAdj1jw6-171" value="PCPlus4" style="text;html=1;align=center;verticalAlign=middle;resizable=0;points=[];autosize=1;strokeColor=none;fillColor=none;fontColor=#000000;" parent="c7biSZGZnNbLbAdj1jw6-74" vertex="1">
          <mxGeometry x="5" y="582.1036842105262" width="60" height="20" as="geometry" />
        </mxCell>
        <mxCell id="c7biSZGZnNbLbAdj1jw6-2" value="Instruction" style="text;html=1;align=center;verticalAlign=middle;resizable=0;points=[];autosize=1;strokeColor=none;fillColor=none;" parent="c7biSZGZnNbLbAdj1jw6-74" vertex="1">
          <mxGeometry y="462.1021052631579" width="70" height="20" as="geometry" />
        </mxCell>
        <mxCell id="c7biSZGZnNbLbAdj1jw6-128" value="" style="group" parent="1" connectable="0" vertex="1">
          <mxGeometry x="754.99" y="-1035" width="80" height="960" as="geometry" />
        </mxCell>
        <mxCell id="c7biSZGZnNbLbAdj1jw6-129" value="" style="group" parent="c7biSZGZnNbLbAdj1jw6-128" connectable="0" vertex="1">
          <mxGeometry width="80" height="959.9999999999999" as="geometry" />
        </mxCell>
        <mxCell id="c7biSZGZnNbLbAdj1jw6-105" value="" style="rounded=0;whiteSpace=wrap;html=1;shadow=0;glass=0;sketch=0;fillColor=#F0F5F7;" parent="c7biSZGZnNbLbAdj1jw6-129" vertex="1">
          <mxGeometry width="80" height="959.9999999999999" as="geometry" />
        </mxCell>
        <mxCell id="c7biSZGZnNbLbAdj1jw6-106" value="EX/MEM" style="swimlane;fillColor=#25607D;strokeColor=#9673a6;shadow=0;glass=0;sketch=0;rounded=0;fontColor=#F0F5F7;" parent="c7biSZGZnNbLbAdj1jw6-129" vertex="1">
          <mxGeometry width="80" height="959.9999999999999" as="geometry" />
        </mxCell>
        <mxCell id="c7biSZGZnNbLbAdj1jw6-37" value="Clock" style="text;html=1;align=center;verticalAlign=middle;resizable=0;points=[];autosize=1;strokeColor=none;fillColor=none;" parent="c7biSZGZnNbLbAdj1jw6-106" vertex="1">
          <mxGeometry x="15" y="922.1052631578946" width="50" height="20" as="geometry" />
        </mxCell>
        <mxCell id="P_-k0MPRVzmCdLMRWgzc-15" value="Imm" style="text;html=1;align=center;verticalAlign=middle;resizable=0;points=[];autosize=1;strokeColor=none;fillColor=none;" parent="c7biSZGZnNbLbAdj1jw6-106" vertex="1">
          <mxGeometry x="20" y="679.996842105263" width="40" height="20" as="geometry" />
        </mxCell>
        <mxCell id="P_-k0MPRVzmCdLMRWgzc-71" value="Rd" style="text;html=1;align=center;verticalAlign=middle;resizable=0;points=[];autosize=1;strokeColor=none;fillColor=none;" parent="c7biSZGZnNbLbAdj1jw6-106" vertex="1">
          <mxGeometry x="25" y="850.53" width="30" height="20" as="geometry" />
        </mxCell>
        <mxCell id="c7biSZGZnNbLbAdj1jw6-69" value="Read_Rs" style="text;html=1;align=center;verticalAlign=middle;resizable=0;points=[];autosize=1;strokeColor=none;fillColor=none;" parent="c7biSZGZnNbLbAdj1jw6-106" vertex="1">
          <mxGeometry x="5" y="610.0047368421052" width="70" height="20" as="geometry" />
        </mxCell>
        <mxCell id="P_-k0MPRVzmCdLMRWgzc-13" value="Zero" style="text;html=1;align=center;verticalAlign=middle;resizable=0;points=[];autosize=1;strokeColor=none;fillColor=none;" parent="c7biSZGZnNbLbAdj1jw6-106" vertex="1">
          <mxGeometry x="20" y="430.0047368421052" width="40" height="20" as="geometry" />
        </mxCell>
        <mxCell id="P_-k0MPRVzmCdLMRWgzc-11" value="ALURes" style="text;html=1;align=center;verticalAlign=middle;resizable=0;points=[];autosize=1;strokeColor=none;fillColor=none;" parent="c7biSZGZnNbLbAdj1jw6-106" vertex="1">
          <mxGeometry x="10" y="369.99526315789467" width="60" height="20" as="geometry" />
        </mxCell>
        <mxCell id="c7biSZGZnNbLbAdj1jw6-30" value="Movn" style="text;html=1;align=center;verticalAlign=middle;resizable=0;points=[];autosize=1;strokeColor=none;fillColor=none;" parent="c7biSZGZnNbLbAdj1jw6-106" vertex="1">
          <mxGeometry x="20" y="329.9999999999999" width="40" height="20" as="geometry" />
        </mxCell>
        <mxCell id="c7biSZGZnNbLbAdj1jw6-33" value="Halt" style="text;html=1;align=center;verticalAlign=middle;resizable=0;points=[];autosize=1;strokeColor=none;fillColor=none;" parent="c7biSZGZnNbLbAdj1jw6-106" vertex="1">
          <mxGeometry x="20" y="194.9963157894735" width="40" height="20" as="geometry" />
        </mxCell>
        <mxCell id="c7biSZGZnNbLbAdj1jw6-35" value="PC+4" style="text;html=1;align=center;verticalAlign=middle;resizable=0;points=[];autosize=1;strokeColor=none;fillColor=none;" parent="c7biSZGZnNbLbAdj1jw6-106" vertex="1">
          <mxGeometry x="15" y="30.001052631579" width="50" height="20" as="geometry" />
        </mxCell>
        <mxCell id="P_-k0MPRVzmCdLMRWgzc-53" value="Branch" style="text;html=1;align=center;verticalAlign=middle;resizable=0;points=[];autosize=1;strokeColor=none;fillColor=none;fontColor=#000000;" parent="c7biSZGZnNbLbAdj1jw6-106" vertex="1">
          <mxGeometry x="15" y="50" width="50" height="20" as="geometry" />
        </mxCell>
        <mxCell id="P_-k0MPRVzmCdLMRWgzc-54" value="BranchEq" style="text;html=1;align=center;verticalAlign=middle;resizable=0;points=[];autosize=1;strokeColor=none;fillColor=none;fontColor=#000000;" parent="c7biSZGZnNbLbAdj1jw6-106" vertex="1">
          <mxGeometry x="5" y="70" width="70" height="20" as="geometry" />
        </mxCell>
        <mxCell id="P_-k0MPRVzmCdLMRWgzc-56" value="JumpReg" style="text;html=1;align=center;verticalAlign=middle;resizable=0;points=[];autosize=1;strokeColor=none;fillColor=none;fontColor=#000000;" parent="c7biSZGZnNbLbAdj1jw6-106" vertex="1">
          <mxGeometry x="5" y="110.00000000000003" width="70" height="20" as="geometry" />
        </mxCell>
        <mxCell id="P_-k0MPRVzmCdLMRWgzc-55" value="Jump" style="text;html=1;align=center;verticalAlign=middle;resizable=0;points=[];autosize=1;strokeColor=none;fillColor=none;fontColor=#000000;" parent="c7biSZGZnNbLbAdj1jw6-106" vertex="1">
          <mxGeometry x="20" y="130" width="40" height="20" as="geometry" />
        </mxCell>
        <mxCell id="P_-k0MPRVzmCdLMRWgzc-58" value="JumpImm" style="text;html=1;align=center;verticalAlign=middle;resizable=0;points=[];autosize=1;strokeColor=none;fillColor=none;fontColor=#000000;" parent="c7biSZGZnNbLbAdj1jw6-106" vertex="1">
          <mxGeometry x="5" y="150.00000000000003" width="70" height="20" as="geometry" />
        </mxCell>
        <mxCell id="c7biSZGZnNbLbAdj1jw6-39" value="MemWrite" style="text;html=1;align=center;verticalAlign=middle;resizable=0;points=[];autosize=1;strokeColor=none;fillColor=none;" parent="c7biSZGZnNbLbAdj1jw6-106" vertex="1">
          <mxGeometry x="5" y="310.0042105263157" width="70" height="20" as="geometry" />
        </mxCell>
        <mxCell id="c7biSZGZnNbLbAdj1jw6-31" value="RegWrite" style="text;html=1;align=center;verticalAlign=middle;resizable=0;points=[];autosize=1;strokeColor=none;fillColor=none;" parent="c7biSZGZnNbLbAdj1jw6-106" vertex="1">
          <mxGeometry x="5" y="230.00368421052622" width="70" height="20" as="geometry" />
        </mxCell>
        <mxCell id="c7biSZGZnNbLbAdj1jw6-34" value="MemtoReg" style="text;html=1;align=center;verticalAlign=middle;resizable=0;points=[];autosize=1;strokeColor=none;fillColor=none;" parent="c7biSZGZnNbLbAdj1jw6-106" vertex="1">
          <mxGeometry x="5" y="290.00052631578933" width="70" height="20" as="geometry" />
        </mxCell>
        <mxCell id="c7biSZGZnNbLbAdj1jw6-36" value="Read_Rt" style="text;html=1;align=center;verticalAlign=middle;resizable=0;points=[];autosize=1;strokeColor=none;fillColor=none;" parent="c7biSZGZnNbLbAdj1jw6-129" vertex="1">
          <mxGeometry x="10" y="639.997894736842" width="60" height="20" as="geometry" />
        </mxCell>
        <mxCell id="P_-k0MPRVzmCdLMRWgzc-57" value="Read_Rs" style="text;html=1;align=center;verticalAlign=middle;resizable=0;points=[];autosize=1;strokeColor=none;fillColor=none;fontColor=#000000;" parent="c7biSZGZnNbLbAdj1jw6-129" vertex="1">
          <mxGeometry x="5" y="90" width="70" height="20" as="geometry" />
        </mxCell>
        <mxCell id="c7biSZGZnNbLbAdj1jw6-130" value="" style="group" parent="1" connectable="0" vertex="1">
          <mxGeometry x="1234.99" y="-1035" width="80" height="960" as="geometry" />
        </mxCell>
        <mxCell id="c7biSZGZnNbLbAdj1jw6-131" value="" style="group" parent="c7biSZGZnNbLbAdj1jw6-130" connectable="0" vertex="1">
          <mxGeometry width="80" height="959.9999999999999" as="geometry" />
        </mxCell>
        <mxCell id="c7biSZGZnNbLbAdj1jw6-132" value="" style="rounded=0;whiteSpace=wrap;html=1;shadow=0;glass=0;sketch=0;fillColor=#F0F5F7;" parent="c7biSZGZnNbLbAdj1jw6-131" vertex="1">
          <mxGeometry width="80" height="959.9999999999999" as="geometry" />
        </mxCell>
        <mxCell id="c7biSZGZnNbLbAdj1jw6-133" value="MEM/WB" style="swimlane;fillColor=#25607D;strokeColor=#9673a6;shadow=0;glass=0;sketch=0;rounded=0;fontColor=#F0F5F7;" parent="c7biSZGZnNbLbAdj1jw6-131" vertex="1">
          <mxGeometry width="80" height="959.9999999999999" as="geometry" />
        </mxCell>
        <mxCell id="c7biSZGZnNbLbAdj1jw6-148" value="Halt" style="text;html=1;align=center;verticalAlign=middle;resizable=0;points=[];autosize=1;strokeColor=none;fillColor=none;" parent="c7biSZGZnNbLbAdj1jw6-133" vertex="1">
          <mxGeometry x="20" y="194.99631578947356" width="40" height="20" as="geometry" />
        </mxCell>
        <mxCell id="c7biSZGZnNbLbAdj1jw6-150" value="PC + 4" style="text;html=1;align=center;verticalAlign=middle;resizable=0;points=[];autosize=1;strokeColor=none;fillColor=none;" parent="c7biSZGZnNbLbAdj1jw6-133" vertex="1">
          <mxGeometry x="15" y="480.0026315789474" width="50" height="20" as="geometry" />
        </mxCell>
        <mxCell id="c7biSZGZnNbLbAdj1jw6-152" value="Clock" style="text;html=1;align=center;verticalAlign=middle;resizable=0;points=[];autosize=1;strokeColor=none;fillColor=none;" parent="c7biSZGZnNbLbAdj1jw6-133" vertex="1">
          <mxGeometry x="15" y="922.1052631578947" width="50" height="20" as="geometry" />
        </mxCell>
        <mxCell id="P_-k0MPRVzmCdLMRWgzc-72" value="Rd" style="text;html=1;align=center;verticalAlign=middle;resizable=0;points=[];autosize=1;strokeColor=none;fillColor=none;" parent="c7biSZGZnNbLbAdj1jw6-133" vertex="1">
          <mxGeometry x="25" y="849.4773684210525" width="30" height="20" as="geometry" />
        </mxCell>
        <mxCell id="c7biSZGZnNbLbAdj1jw6-147" value="RegWrite" style="text;html=1;align=center;verticalAlign=middle;resizable=0;points=[];autosize=1;strokeColor=none;fillColor=none;" parent="c7biSZGZnNbLbAdj1jw6-133" vertex="1">
          <mxGeometry x="5" y="240.0036842105263" width="70" height="20" as="geometry" />
        </mxCell>
        <mxCell id="c7biSZGZnNbLbAdj1jw6-149" value="MemtoReg" style="text;html=1;align=center;verticalAlign=middle;resizable=0;points=[];autosize=1;strokeColor=none;fillColor=none;" parent="c7biSZGZnNbLbAdj1jw6-133" vertex="1">
          <mxGeometry x="5" y="289.99631578947367" width="70" height="20" as="geometry" />
        </mxCell>
        <mxCell id="P_-k0MPRVzmCdLMRWgzc-78" value="ALURes" style="text;html=1;align=center;verticalAlign=middle;resizable=0;points=[];autosize=1;strokeColor=none;fillColor=none;" parent="c7biSZGZnNbLbAdj1jw6-133" vertex="1">
          <mxGeometry x="10" y="349.9982271468144" width="60" height="20" as="geometry" />
        </mxCell>
        <mxCell id="P_-k0MPRVzmCdLMRWgzc-69" value="DMemOut" style="text;html=1;align=center;verticalAlign=middle;resizable=0;points=[];autosize=1;strokeColor=none;fillColor=none;" parent="c7biSZGZnNbLbAdj1jw6-131" vertex="1">
          <mxGeometry x="5" y="439.99631578947367" width="70" height="20" as="geometry" />
        </mxCell>
        <mxCell id="c7biSZGZnNbLbAdj1jw6-177" style="rounded=0;orthogonalLoop=1;jettySize=auto;html=1;exitX=1;exitY=0.5;exitDx=0;exitDy=0;fontColor=#990000;endArrow=classic;endFill=1;strokeColor=#000000;strokeWidth=2;entryX=-0.038;entryY=0.512;entryDx=0;entryDy=0;entryPerimeter=0;" parent="1" source="c7biSZGZnNbLbAdj1jw6-154" target="c7biSZGZnNbLbAdj1jw6-2" edge="1">
          <mxGeometry relative="1" as="geometry">
            <mxPoint x="-270.01" y="-562.9" as="targetPoint" />
          </mxGeometry>
        </mxCell>
        <mxCell id="c7biSZGZnNbLbAdj1jw6-154" value="IMEM" style="swimlane;rounded=0;shadow=0;glass=0;sketch=0;fontColor=#F0F5F7;fillColor=#25607D;" parent="1" vertex="1">
          <mxGeometry x="-410.01" y="-642.9" width="120" height="160" as="geometry" />
        </mxCell>
        <mxCell id="c7biSZGZnNbLbAdj1jw6-155" value="&lt;font color=&quot;#000000&quot;&gt;Instr&lt;/font&gt;" style="text;html=1;align=right;verticalAlign=middle;resizable=0;points=[];autosize=1;strokeColor=none;fillColor=none;fontColor=#F0F5F7;" parent="c7biSZGZnNbLbAdj1jw6-154" vertex="1">
          <mxGeometry x="70" y="70" width="40" height="20" as="geometry" />
        </mxCell>
        <mxCell id="c7biSZGZnNbLbAdj1jw6-156" value="Instr Addr" style="text;html=1;align=left;verticalAlign=middle;resizable=0;points=[];autosize=1;strokeColor=none;fillColor=none;fontColor=#000000;" parent="c7biSZGZnNbLbAdj1jw6-154" vertex="1">
          <mxGeometry y="70" width="70" height="20" as="geometry" />
        </mxCell>
        <mxCell id="c7biSZGZnNbLbAdj1jw6-158" value="PC" style="rounded=0;whiteSpace=wrap;html=1;shadow=0;glass=0;sketch=0;fontColor=#F0F5F7;fillColor=#25607D;" parent="1" vertex="1">
          <mxGeometry x="-560.01" y="-642.9" width="40" height="160" as="geometry" />
        </mxCell>
        <mxCell id="c7biSZGZnNbLbAdj1jw6-159" value="Fetch Logic" style="swimlane;rounded=0;shadow=0;glass=0;sketch=0;fontColor=#F0F5F7;fillColor=#25607D;" parent="1" vertex="1">
          <mxGeometry x="1034.9899999999998" y="-1035" width="120" height="200" as="geometry" />
        </mxCell>
        <mxCell id="c7biSZGZnNbLbAdj1jw6-160" value="&lt;font color=&quot;#000000&quot;&gt;PCPlus4&lt;br&gt;&lt;/font&gt;" style="text;html=1;align=left;verticalAlign=middle;resizable=0;points=[];autosize=1;strokeColor=none;fillColor=none;fontColor=#F0F5F7;" parent="c7biSZGZnNbLbAdj1jw6-159" vertex="1">
          <mxGeometry x="5" y="30" width="60" height="20" as="geometry" />
        </mxCell>
        <mxCell id="c7biSZGZnNbLbAdj1jw6-161" value="Jump" style="text;html=1;align=left;verticalAlign=middle;resizable=0;points=[];autosize=1;strokeColor=none;fillColor=none;fontColor=#000000;" parent="c7biSZGZnNbLbAdj1jw6-159" vertex="1">
          <mxGeometry x="5" y="130" width="40" height="20" as="geometry" />
        </mxCell>
        <mxCell id="c7biSZGZnNbLbAdj1jw6-162" value="JumpReg" style="text;html=1;align=left;verticalAlign=middle;resizable=0;points=[];autosize=1;strokeColor=none;fillColor=none;fontColor=#000000;" parent="c7biSZGZnNbLbAdj1jw6-159" vertex="1">
          <mxGeometry x="5" y="110" width="70" height="20" as="geometry" />
        </mxCell>
        <mxCell id="c7biSZGZnNbLbAdj1jw6-163" value="JumpRegData" style="text;html=1;align=left;verticalAlign=middle;resizable=0;points=[];autosize=1;strokeColor=none;fillColor=none;fontColor=#000000;" parent="c7biSZGZnNbLbAdj1jw6-159" vertex="1">
          <mxGeometry x="5" y="90" width="90" height="20" as="geometry" />
        </mxCell>
        <mxCell id="c7biSZGZnNbLbAdj1jw6-165" value="Branch" style="text;html=1;align=left;verticalAlign=middle;resizable=0;points=[];autosize=1;strokeColor=none;fillColor=none;fontColor=#000000;" parent="c7biSZGZnNbLbAdj1jw6-159" vertex="1">
          <mxGeometry x="5" y="50" width="50" height="20" as="geometry" />
        </mxCell>
        <mxCell id="c7biSZGZnNbLbAdj1jw6-167" value="BranchEQ" style="text;html=1;align=left;verticalAlign=middle;resizable=0;points=[];autosize=1;strokeColor=none;fillColor=none;fontColor=#000000;" parent="c7biSZGZnNbLbAdj1jw6-159" vertex="1">
          <mxGeometry x="5" y="70" width="70" height="20" as="geometry" />
        </mxCell>
        <mxCell id="c7biSZGZnNbLbAdj1jw6-168" value="JumpImm" style="text;html=1;align=left;verticalAlign=middle;resizable=0;points=[];autosize=1;strokeColor=none;fillColor=none;fontColor=#000000;" parent="c7biSZGZnNbLbAdj1jw6-159" vertex="1">
          <mxGeometry x="5" y="150" width="70" height="20" as="geometry" />
        </mxCell>
        <mxCell id="c7biSZGZnNbLbAdj1jw6-173" value="New Addr" style="text;html=1;align=right;verticalAlign=middle;resizable=0;points=[];autosize=1;strokeColor=none;fillColor=none;fontColor=#000000;" parent="c7biSZGZnNbLbAdj1jw6-159" vertex="1">
          <mxGeometry x="50" y="130" width="70" height="20" as="geometry" />
        </mxCell>
        <mxCell id="P_-k0MPRVzmCdLMRWgzc-157" value="BranchImm" style="text;html=1;align=center;verticalAlign=middle;resizable=0;points=[];autosize=1;strokeColor=none;fillColor=none;" parent="c7biSZGZnNbLbAdj1jw6-159" vertex="1">
          <mxGeometry x="2.2737367544323206e-13" y="175" width="80" height="20" as="geometry" />
        </mxCell>
        <mxCell id="c7biSZGZnNbLbAdj1jw6-178" value="" style="endArrow=classic;html=1;rounded=0;fontColor=#990000;strokeColor=#000000;strokeWidth=2;exitX=1;exitY=0.5;exitDx=0;exitDy=0;entryX=0;entryY=0.5;entryDx=0;entryDy=0;" parent="1" source="c7biSZGZnNbLbAdj1jw6-179" target="c7biSZGZnNbLbAdj1jw6-154" edge="1">
          <mxGeometry width="50" height="50" relative="1" as="geometry">
            <mxPoint x="-590.01" y="-562.9" as="sourcePoint" />
            <mxPoint x="-540.01" y="-562.9" as="targetPoint" />
          </mxGeometry>
        </mxCell>
        <mxCell id="c7biSZGZnNbLbAdj1jw6-179" value="" style="ellipse;whiteSpace=wrap;html=1;aspect=fixed;rounded=0;shadow=0;glass=0;sketch=0;fontColor=#990000;fillColor=#000000;strokeWidth=0;" parent="1" vertex="1">
          <mxGeometry x="-510.01" y="-567.9" width="10" height="10" as="geometry" />
        </mxCell>
        <mxCell id="c7biSZGZnNbLbAdj1jw6-180" value="" style="endArrow=none;html=1;rounded=0;fontColor=#990000;strokeColor=#000000;strokeWidth=2;exitX=1;exitY=0.5;exitDx=0;exitDy=0;entryX=0;entryY=0.5;entryDx=0;entryDy=0;" parent="1" source="c7biSZGZnNbLbAdj1jw6-158" target="c7biSZGZnNbLbAdj1jw6-179" edge="1">
          <mxGeometry width="50" height="50" relative="1" as="geometry">
            <mxPoint x="-500.01" y="-512.9" as="sourcePoint" />
            <mxPoint x="-450.01" y="-562.9" as="targetPoint" />
          </mxGeometry>
        </mxCell>
        <mxCell id="c7biSZGZnNbLbAdj1jw6-184" value="RegFile" style="swimlane;rounded=0;shadow=0;glass=0;sketch=0;fontColor=#F0F5F7;strokeWidth=1;fillColor=#25607D;startSize=23;" parent="1" vertex="1">
          <mxGeometry x="54.99" y="-715" width="120" height="250" as="geometry" />
        </mxCell>
        <mxCell id="c7biSZGZnNbLbAdj1jw6-186" value="Rs" style="text;html=1;align=left;verticalAlign=middle;resizable=0;points=[];autosize=1;strokeColor=none;fillColor=none;fontColor=#000000;" parent="c7biSZGZnNbLbAdj1jw6-184" vertex="1">
          <mxGeometry x="10" y="40" width="30" height="20" as="geometry" />
        </mxCell>
        <mxCell id="c7biSZGZnNbLbAdj1jw6-185" value="&lt;font color=&quot;#000000&quot;&gt;Rt&lt;/font&gt;" style="text;html=1;align=left;verticalAlign=middle;resizable=0;points=[];autosize=1;strokeColor=none;fillColor=none;fontColor=#F0F5F7;" parent="c7biSZGZnNbLbAdj1jw6-184" vertex="1">
          <mxGeometry x="10" y="80" width="30" height="20" as="geometry" />
        </mxCell>
        <mxCell id="c7biSZGZnNbLbAdj1jw6-191" value="Read Rt" style="text;html=1;align=right;verticalAlign=middle;resizable=0;points=[];autosize=1;strokeColor=none;fillColor=none;fontColor=#000000;" parent="c7biSZGZnNbLbAdj1jw6-184" vertex="1">
          <mxGeometry x="50" y="100" width="60" height="20" as="geometry" />
        </mxCell>
        <mxCell id="c7biSZGZnNbLbAdj1jw6-190" value="Read Rs" style="text;html=1;align=right;verticalAlign=middle;resizable=0;points=[];autosize=1;strokeColor=none;fillColor=none;fontColor=#000000;" parent="c7biSZGZnNbLbAdj1jw6-184" vertex="1">
          <mxGeometry x="50" y="40" width="60" height="20" as="geometry" />
        </mxCell>
        <mxCell id="c7biSZGZnNbLbAdj1jw6-189" value="Reg Write" style="text;html=1;align=left;verticalAlign=middle;resizable=0;points=[];autosize=1;strokeColor=none;fillColor=none;fontColor=#000000;" parent="c7biSZGZnNbLbAdj1jw6-184" vertex="1">
          <mxGeometry x="10" y="220" width="70" height="20" as="geometry" />
        </mxCell>
        <mxCell id="c7biSZGZnNbLbAdj1jw6-188" value="Write Data" style="text;html=1;align=left;verticalAlign=middle;resizable=0;points=[];autosize=1;strokeColor=none;fillColor=none;fontColor=#000000;" parent="c7biSZGZnNbLbAdj1jw6-184" vertex="1">
          <mxGeometry x="10" y="170" width="70" height="20" as="geometry" />
        </mxCell>
        <mxCell id="c7biSZGZnNbLbAdj1jw6-187" value="Rd" style="text;html=1;align=left;verticalAlign=middle;resizable=0;points=[];autosize=1;strokeColor=none;fillColor=none;fontColor=#000000;" parent="c7biSZGZnNbLbAdj1jw6-184" vertex="1">
          <mxGeometry x="10" y="130" width="30" height="20" as="geometry" />
        </mxCell>
        <mxCell id="c7biSZGZnNbLbAdj1jw6-192" value="" style="endArrow=none;html=1;rounded=0;fontColor=#000000;strokeColor=default;strokeWidth=2;elbow=vertical;endFill=0;shape=link;startArrow=none;" parent="1" edge="1">
          <mxGeometry width="50" height="50" relative="1" as="geometry">
            <mxPoint x="-180.01000000000002" y="-562.9" as="sourcePoint" />
            <mxPoint x="-180.01000000000002" y="-562.9" as="targetPoint" />
          </mxGeometry>
        </mxCell>
        <mxCell id="c7biSZGZnNbLbAdj1jw6-193" value="" style="endArrow=none;html=1;rounded=0;fontColor=#000000;strokeColor=default;strokeWidth=2;elbow=vertical;shape=link;entryX=0.5;entryY=0;entryDx=0;entryDy=0;edgeStyle=orthogonalEdgeStyle;" parent="1" target="c7biSZGZnNbLbAdj1jw6-195" edge="1">
          <mxGeometry width="50" height="50" relative="1" as="geometry">
            <mxPoint x="-160.01000000000002" y="-845" as="sourcePoint" />
            <mxPoint x="-150.09" y="-475" as="targetPoint" />
            <Array as="points">
              <mxPoint x="-160.01000000000002" y="-845" />
            </Array>
          </mxGeometry>
        </mxCell>
        <mxCell id="c7biSZGZnNbLbAdj1jw6-195" value="" style="ellipse;whiteSpace=wrap;html=1;aspect=fixed;rounded=0;shadow=0;glass=0;sketch=0;fontColor=#990000;fillColor=#000000;strokeWidth=0;" parent="1" vertex="1">
          <mxGeometry x="-165.01000000000002" y="-560" width="10" height="10" as="geometry" />
        </mxCell>
        <mxCell id="c7biSZGZnNbLbAdj1jw6-196" value="" style="endArrow=none;html=1;rounded=0;fontColor=#000000;strokeColor=default;strokeWidth=2;elbow=vertical;endFill=0;shape=link;entryX=0;entryY=0.5;entryDx=0;entryDy=0;" parent="1" target="c7biSZGZnNbLbAdj1jw6-195" edge="1">
          <mxGeometry width="50" height="50" relative="1" as="geometry">
            <mxPoint x="-185.01000000000025" y="-555" as="sourcePoint" />
            <mxPoint x="-175.01000000000002" y="-555" as="targetPoint" />
          </mxGeometry>
        </mxCell>
        <mxCell id="c7biSZGZnNbLbAdj1jw6-197" value="" style="endArrow=none;html=1;rounded=0;fontColor=#000000;strokeColor=default;strokeWidth=2;elbow=vertical;shape=link;exitX=0.5;exitY=1;exitDx=0;exitDy=0;" parent="1" source="c7biSZGZnNbLbAdj1jw6-195" edge="1">
          <mxGeometry width="50" height="50" relative="1" as="geometry">
            <mxPoint x="-150.21999999999994" y="-545" as="sourcePoint" />
            <mxPoint x="-160.01000000000002" y="-175" as="targetPoint" />
          </mxGeometry>
        </mxCell>
        <mxCell id="c7biSZGZnNbLbAdj1jw6-198" value="" style="endArrow=classic;html=1;rounded=0;fontColor=#000000;strokeColor=default;strokeWidth=2;elbow=vertical;" parent="1" edge="1">
          <mxGeometry width="50" height="50" relative="1" as="geometry">
            <mxPoint x="-155.01000000000002" y="-665" as="sourcePoint" />
            <mxPoint x="54.99" y="-665" as="targetPoint" />
          </mxGeometry>
        </mxCell>
        <mxCell id="c7biSZGZnNbLbAdj1jw6-219" value="Rs" style="edgeLabel;html=1;align=center;verticalAlign=middle;resizable=0;points=[];fontColor=#000000;" parent="c7biSZGZnNbLbAdj1jw6-198" connectable="0" vertex="1">
          <mxGeometry x="-0.5583" y="-1" relative="1" as="geometry">
            <mxPoint x="-3" y="-1" as="offset" />
          </mxGeometry>
        </mxCell>
        <mxCell id="c7biSZGZnNbLbAdj1jw6-199" value="" style="endArrow=classic;html=1;rounded=0;fontColor=#000000;strokeColor=default;strokeWidth=2;elbow=vertical;" parent="1" edge="1">
          <mxGeometry width="50" height="50" relative="1" as="geometry">
            <mxPoint x="-155.01000000000002" y="-625" as="sourcePoint" />
            <mxPoint x="54.99" y="-625" as="targetPoint" />
          </mxGeometry>
        </mxCell>
        <mxCell id="c7biSZGZnNbLbAdj1jw6-208" value="" style="group" parent="1" connectable="0" vertex="1">
          <mxGeometry x="-85.01000000000002" y="-255" width="40" height="160" as="geometry" />
        </mxCell>
        <mxCell id="c7biSZGZnNbLbAdj1jw6-203" value="" style="shape=trapezoid;perimeter=trapezoidPerimeter;whiteSpace=wrap;html=1;fixedSize=1;rounded=0;shadow=0;glass=0;sketch=0;fontColor=#000000;strokeWidth=1;fillColor=#FFFFFF;size=20;rotation=90;" parent="c7biSZGZnNbLbAdj1jw6-208" vertex="1">
          <mxGeometry x="-60" y="60" width="160" height="40" as="geometry" />
        </mxCell>
        <mxCell id="c7biSZGZnNbLbAdj1jw6-204" value="00" style="text;html=1;align=center;verticalAlign=middle;resizable=0;points=[];autosize=1;strokeColor=none;fillColor=none;fontColor=#000000;" parent="c7biSZGZnNbLbAdj1jw6-208" vertex="1">
          <mxGeometry x="5" y="30" width="30" height="20" as="geometry" />
        </mxCell>
        <mxCell id="c7biSZGZnNbLbAdj1jw6-205" value="01" style="text;html=1;align=center;verticalAlign=middle;resizable=0;points=[];autosize=1;strokeColor=none;fillColor=none;fontColor=#000000;" parent="c7biSZGZnNbLbAdj1jw6-208" vertex="1">
          <mxGeometry x="5" y="70" width="30" height="20" as="geometry" />
        </mxCell>
        <mxCell id="c7biSZGZnNbLbAdj1jw6-206" value="10" style="text;html=1;align=center;verticalAlign=middle;resizable=0;points=[];autosize=1;strokeColor=none;fillColor=none;fontColor=#000000;" parent="c7biSZGZnNbLbAdj1jw6-208" vertex="1">
          <mxGeometry x="5" y="110" width="30" height="20" as="geometry" />
        </mxCell>
        <mxCell id="c7biSZGZnNbLbAdj1jw6-209" value="" style="endArrow=classic;html=1;rounded=0;fontColor=#000000;strokeColor=#355269;strokeWidth=3;elbow=vertical;edgeStyle=orthogonalEdgeStyle;fillColor=#dae8fc;" parent="1" edge="1">
          <mxGeometry width="50" height="50" relative="1" as="geometry">
            <mxPoint x="1315" y="-170" as="sourcePoint" />
            <mxPoint x="54.99" y="-575" as="targetPoint" />
            <Array as="points">
              <mxPoint x="1415" y="-170" />
              <mxPoint x="1415" y="-35" />
              <mxPoint x="-5" y="-35" />
              <mxPoint x="-5" y="-575" />
            </Array>
          </mxGeometry>
        </mxCell>
        <mxCell id="P_-k0MPRVzmCdLMRWgzc-152" value="RegFile Rd" style="edgeLabel;html=1;align=center;verticalAlign=middle;resizable=0;points=[];" parent="c7biSZGZnNbLbAdj1jw6-209" connectable="0" vertex="1">
          <mxGeometry x="-0.9325" y="-5" relative="1" as="geometry">
            <mxPoint x="24" y="30" as="offset" />
          </mxGeometry>
        </mxCell>
        <mxCell id="rr36gFx3J1xfFyyzJc3Y-2" value="RegRdAddr" style="edgeLabel;html=1;align=center;verticalAlign=middle;resizable=0;points=[];" parent="c7biSZGZnNbLbAdj1jw6-209" connectable="0" vertex="1">
          <mxGeometry x="0.9415" relative="1" as="geometry">
            <mxPoint x="5" y="-11" as="offset" />
          </mxGeometry>
        </mxCell>
        <mxCell id="c7biSZGZnNbLbAdj1jw6-211" value="" style="endArrow=classic;html=1;rounded=0;fontColor=#000000;strokeColor=default;strokeWidth=2;elbow=vertical;entryX=0.5;entryY=1;entryDx=0;entryDy=0;edgeStyle=orthogonalEdgeStyle;" parent="1" target="c7biSZGZnNbLbAdj1jw6-203" edge="1">
          <mxGeometry width="50" height="50" relative="1" as="geometry">
            <mxPoint x="-155.01000000000002" y="-175" as="sourcePoint" />
            <mxPoint x="-35.01000000000001" y="-515" as="targetPoint" />
            <Array as="points">
              <mxPoint x="-135.01000000000002" y="-175" />
              <mxPoint x="-135.01000000000002" y="-175" />
            </Array>
          </mxGeometry>
        </mxCell>
        <mxCell id="c7biSZGZnNbLbAdj1jw6-214" value="Rd" style="edgeLabel;html=1;align=center;verticalAlign=middle;resizable=0;points=[];fontColor=#000000;" parent="c7biSZGZnNbLbAdj1jw6-211" connectable="0" vertex="1">
          <mxGeometry x="-0.0929" relative="1" as="geometry">
            <mxPoint x="-1" as="offset" />
          </mxGeometry>
        </mxCell>
        <mxCell id="c7biSZGZnNbLbAdj1jw6-212" value="" style="endArrow=classic;html=1;rounded=0;fontColor=#000000;strokeColor=default;strokeWidth=2;elbow=vertical;entryX=0.75;entryY=1;entryDx=0;entryDy=0;edgeStyle=orthogonalEdgeStyle;" parent="1" target="c7biSZGZnNbLbAdj1jw6-203" edge="1">
          <mxGeometry width="50" height="50" relative="1" as="geometry">
            <mxPoint x="-105.01000000000002" y="-135" as="sourcePoint" />
            <mxPoint x="-25.010000000000012" y="-475.5" as="targetPoint" />
          </mxGeometry>
        </mxCell>
        <mxCell id="P_-k0MPRVzmCdLMRWgzc-27" value="R31 (JAL)" style="edgeLabel;html=1;align=center;verticalAlign=middle;resizable=0;points=[];" parent="c7biSZGZnNbLbAdj1jw6-212" connectable="0" vertex="1">
          <mxGeometry x="-0.65" relative="1" as="geometry">
            <mxPoint x="-34" as="offset" />
          </mxGeometry>
        </mxCell>
        <mxCell id="c7biSZGZnNbLbAdj1jw6-217" value="" style="endArrow=classic;html=1;rounded=0;fontColor=#000000;strokeColor=default;strokeWidth=2;elbow=vertical;edgeStyle=orthogonalEdgeStyle;entryX=0.25;entryY=1;entryDx=0;entryDy=0;" parent="1" target="c7biSZGZnNbLbAdj1jw6-203" edge="1">
          <mxGeometry width="50" height="50" relative="1" as="geometry">
            <mxPoint x="-155.01000000000002" y="-215" as="sourcePoint" />
            <mxPoint x="-85.01000000000002" y="-215" as="targetPoint" />
            <Array as="points" />
          </mxGeometry>
        </mxCell>
        <mxCell id="P_-k0MPRVzmCdLMRWgzc-26" value="Rt" style="edgeLabel;html=1;align=center;verticalAlign=middle;resizable=0;points=[];" parent="c7biSZGZnNbLbAdj1jw6-217" connectable="0" vertex="1">
          <mxGeometry x="0.2721" y="-1" relative="1" as="geometry">
            <mxPoint x="-15" y="-1" as="offset" />
          </mxGeometry>
        </mxCell>
        <mxCell id="c7biSZGZnNbLbAdj1jw6-221" value="Control" style="swimlane;rounded=1;shadow=0;glass=0;sketch=0;fontColor=#F0F5F7;fillColor=#25607D;arcSize=50;startSize=23;" parent="1" vertex="1">
          <mxGeometry x="-115.01000000000002" y="-885" width="90" height="160" as="geometry" />
        </mxCell>
        <mxCell id="c7biSZGZnNbLbAdj1jw6-222" value="&lt;font color=&quot;#000000&quot;&gt;Controls&lt;/font&gt;" style="text;html=1;align=right;verticalAlign=middle;resizable=0;points=[];autosize=1;strokeColor=none;fillColor=none;fontColor=#F0F5F7;" parent="c7biSZGZnNbLbAdj1jw6-221" vertex="1">
          <mxGeometry x="20" y="120" width="60" height="20" as="geometry" />
        </mxCell>
        <mxCell id="c7biSZGZnNbLbAdj1jw6-223" value="Opcode" style="text;html=1;align=left;verticalAlign=middle;resizable=0;points=[];autosize=1;strokeColor=none;fillColor=none;fontColor=#000000;" parent="c7biSZGZnNbLbAdj1jw6-221" vertex="1">
          <mxGeometry x="10" y="30" width="60" height="20" as="geometry" />
        </mxCell>
        <mxCell id="c7biSZGZnNbLbAdj1jw6-224" value="Funct" style="text;html=1;align=left;verticalAlign=middle;resizable=0;points=[];autosize=1;strokeColor=none;fillColor=none;fontColor=#000000;" parent="c7biSZGZnNbLbAdj1jw6-221" vertex="1">
          <mxGeometry x="10" y="60" width="50" height="20" as="geometry" />
        </mxCell>
        <mxCell id="c7biSZGZnNbLbAdj1jw6-225" value="" style="endArrow=classic;html=1;rounded=0;fontColor=#000000;strokeColor=default;strokeWidth=2;elbow=vertical;" parent="1" edge="1">
          <mxGeometry width="50" height="50" relative="1" as="geometry">
            <mxPoint x="-155.01000000000002" y="-844.38" as="sourcePoint" />
            <mxPoint x="-115.01000000000002" y="-845" as="targetPoint" />
          </mxGeometry>
        </mxCell>
        <mxCell id="c7biSZGZnNbLbAdj1jw6-226" value="" style="endArrow=classic;html=1;rounded=0;fontColor=#000000;strokeColor=default;strokeWidth=2;elbow=vertical;" parent="1" edge="1">
          <mxGeometry width="50" height="50" relative="1" as="geometry">
            <mxPoint x="-155.01000000000002" y="-815" as="sourcePoint" />
            <mxPoint x="-115.01000000000002" y="-815.1700000000003" as="targetPoint" />
            <Array as="points">
              <mxPoint x="-135.01000000000002" y="-815" />
            </Array>
          </mxGeometry>
        </mxCell>
        <mxCell id="c7biSZGZnNbLbAdj1jw6-227" value="" style="endArrow=none;html=1;rounded=0;fontColor=#000000;strokeColor=#82b366;strokeWidth=2;elbow=vertical;endFill=0;shape=link;edgeStyle=orthogonalEdgeStyle;startArrow=none;fillColor=#d5e8d4;" parent="1" source="c7biSZGZnNbLbAdj1jw6-235" edge="1">
          <mxGeometry width="50" height="50" relative="1" as="geometry">
            <mxPoint x="14.989999999999986" y="-835" as="sourcePoint" />
            <mxPoint x="245.1" y="-755" as="targetPoint" />
            <Array as="points">
              <mxPoint x="174.98999999999998" y="-755" />
              <mxPoint x="174.98999999999998" y="-755" />
            </Array>
          </mxGeometry>
        </mxCell>
        <mxCell id="c7biSZGZnNbLbAdj1jw6-228" value="" style="endArrow=none;dashed=1;html=1;rounded=0;fontColor=#000000;strokeColor=#82b366;strokeWidth=3;elbow=vertical;fillColor=#d5e8d4;" parent="1" edge="1">
          <mxGeometry width="50" height="50" relative="1" as="geometry">
            <mxPoint x="245.1" y="-690" as="sourcePoint" />
            <mxPoint x="244.98999999999998" y="-1000" as="targetPoint" />
          </mxGeometry>
        </mxCell>
        <mxCell id="c7biSZGZnNbLbAdj1jw6-229" value="Sign Extender" style="ellipse;whiteSpace=wrap;html=1;rounded=1;shadow=0;glass=0;sketch=0;fontColor=#000000;strokeWidth=1;fillColor=#FFFFFF;" parent="1" vertex="1">
          <mxGeometry x="64.98999999999998" y="-385" width="100" height="60" as="geometry" />
        </mxCell>
        <mxCell id="c7biSZGZnNbLbAdj1jw6-230" value="" style="endArrow=classic;html=1;rounded=0;fontColor=#000000;strokeColor=default;strokeWidth=2;elbow=vertical;exitX=1;exitY=0.5;exitDx=0;exitDy=0;" parent="1" source="c7biSZGZnNbLbAdj1jw6-229" edge="1">
          <mxGeometry width="50" height="50" relative="1" as="geometry">
            <mxPoint x="214.98999999999998" y="-255" as="sourcePoint" />
            <mxPoint x="254.98999999999998" y="-355" as="targetPoint" />
          </mxGeometry>
        </mxCell>
        <mxCell id="c7biSZGZnNbLbAdj1jw6-231" value="" style="endArrow=classic;html=1;rounded=0;fontColor=#000000;strokeColor=default;strokeWidth=2;elbow=vertical;" parent="1" edge="1">
          <mxGeometry width="50" height="50" relative="1" as="geometry">
            <mxPoint x="174.98999999999998" y="-667.05" as="sourcePoint" />
            <mxPoint x="254.98999999999998" y="-667" as="targetPoint" />
          </mxGeometry>
        </mxCell>
        <mxCell id="c7biSZGZnNbLbAdj1jw6-232" value="" style="endArrow=classic;html=1;rounded=0;fontColor=#000000;strokeColor=default;strokeWidth=2;elbow=vertical;" parent="1" edge="1">
          <mxGeometry width="50" height="50" relative="1" as="geometry">
            <mxPoint x="174.98999999999998" y="-605" as="sourcePoint" />
            <mxPoint x="254.98999999999998" y="-605" as="targetPoint" />
          </mxGeometry>
        </mxCell>
        <mxCell id="c7biSZGZnNbLbAdj1jw6-233" value="" style="endArrow=classic;html=1;rounded=0;fontColor=#000000;strokeColor=default;strokeWidth=2;elbow=vertical;entryX=0;entryY=0.5;entryDx=0;entryDy=0;" parent="1" target="c7biSZGZnNbLbAdj1jw6-229" edge="1">
          <mxGeometry width="50" height="50" relative="1" as="geometry">
            <mxPoint x="-155.01000000000002" y="-355" as="sourcePoint" />
            <mxPoint x="154.98999999999998" y="-375" as="targetPoint" />
          </mxGeometry>
        </mxCell>
        <mxCell id="c7biSZGZnNbLbAdj1jw6-235" value="" style="ellipse;whiteSpace=wrap;html=1;aspect=fixed;rounded=0;shadow=0;glass=0;sketch=0;fillColor=#82B366;strokeWidth=0;strokeColor=#82b366;" parent="1" vertex="1">
          <mxGeometry x="-5.010000000000014" y="-760" width="10" height="10" as="geometry" />
        </mxCell>
        <mxCell id="c7biSZGZnNbLbAdj1jw6-236" value="" style="endArrow=none;html=1;rounded=0;fontColor=#000000;strokeColor=#82b366;strokeWidth=2;elbow=vertical;endFill=0;shape=link;edgeStyle=orthogonalEdgeStyle;fillColor=#d5e8d4;entryX=0;entryY=0.5;entryDx=0;entryDy=0;" parent="1" target="c7biSZGZnNbLbAdj1jw6-235" edge="1">
          <mxGeometry width="50" height="50" relative="1" as="geometry">
            <mxPoint x="-25.010000000000012" y="-755" as="sourcePoint" />
            <mxPoint x="24.989999999999988" y="-835" as="targetPoint" />
            <Array as="points" />
          </mxGeometry>
        </mxCell>
        <mxCell id="c7biSZGZnNbLbAdj1jw6-174" style="edgeStyle=orthogonalEdgeStyle;rounded=0;orthogonalLoop=1;jettySize=auto;html=1;fontColor=#000000;strokeColor=#b85450;strokeWidth=3;endArrow=classic;endFill=1;entryX=0.25;entryY=1;entryDx=0;entryDy=0;fillColor=#f8cecc;exitX=1.02;exitY=0.505;exitDx=0;exitDy=0;exitPerimeter=0;" parent="1" source="c7biSZGZnNbLbAdj1jw6-173" target="c7biSZGZnNbLbAdj1jw6-238" edge="1">
          <mxGeometry relative="1" as="geometry">
            <mxPoint x="-745.01" y="-375" as="targetPoint" />
            <mxPoint x="1434.99" y="-925" as="sourcePoint" />
            <Array as="points">
              <mxPoint x="1205.1" y="-895" />
              <mxPoint x="1205.1" y="-1070" />
              <mxPoint x="-664.9" y="-1070" />
              <mxPoint x="-664.9" y="-580" />
            </Array>
          </mxGeometry>
        </mxCell>
        <mxCell id="c7biSZGZnNbLbAdj1jw6-245" value="" style="endArrow=classic;html=1;rounded=0;fontColor=#000000;strokeColor=default;strokeWidth=2;elbow=vertical;exitX=0.5;exitY=0;exitDx=0;exitDy=0;entryX=0;entryY=0.5;entryDx=0;entryDy=0;" parent="1" source="c7biSZGZnNbLbAdj1jw6-238" target="c7biSZGZnNbLbAdj1jw6-158" edge="1">
          <mxGeometry width="50" height="50" relative="1" as="geometry">
            <mxPoint x="-680.01" y="-522.9" as="sourcePoint" />
            <mxPoint x="-630.01" y="-572.9" as="targetPoint" />
          </mxGeometry>
        </mxCell>
        <mxCell id="c7biSZGZnNbLbAdj1jw6-247" value="" style="endArrow=classic;html=1;rounded=0;fontColor=#000000;strokeColor=default;strokeWidth=2;elbow=vertical;edgeStyle=orthogonalEdgeStyle;entryX=0;entryY=0.5;entryDx=0;entryDy=0;entryPerimeter=0;exitX=0.5;exitY=1;exitDx=0;exitDy=0;" parent="1" source="c7biSZGZnNbLbAdj1jw6-179" target="c7biSZGZnNbLbAdj1jw6-248" edge="1">
          <mxGeometry width="50" height="50" relative="1" as="geometry">
            <mxPoint x="-585.01" y="-552.9" as="sourcePoint" />
            <mxPoint x="-560.01" y="-659.9" as="targetPoint" />
            <Array as="points">
              <mxPoint x="-505.01" y="-412.9" />
            </Array>
          </mxGeometry>
        </mxCell>
        <mxCell id="c7biSZGZnNbLbAdj1jw6-250" value="" style="group" parent="1" connectable="0" vertex="1">
          <mxGeometry x="-480.01" y="-502.9" width="50" height="120" as="geometry" />
        </mxCell>
        <mxCell id="c7biSZGZnNbLbAdj1jw6-246" value="" style="verticalLabelPosition=bottom;verticalAlign=top;html=1;shape=mxgraph.basic.polygon;polyCoords=[[0,0],[0.8,0.25],[0.8,0.5],[0.8,0.75],[0,1],[0,0.58],[0.2,0.5],[0,0.42]];polyline=0;fontFamily=Helvetica;container=0;rotation=0;" parent="c7biSZGZnNbLbAdj1jw6-250" vertex="1">
          <mxGeometry width="50" height="120" as="geometry">
            <mxRectangle x="-360" y="160" width="50" height="40" as="alternateBounds" />
          </mxGeometry>
        </mxCell>
        <mxCell id="c7biSZGZnNbLbAdj1jw6-248" value="PC" style="text;html=1;align=center;verticalAlign=middle;resizable=0;points=[];autosize=1;strokeColor=none;fillColor=none;fontColor=#000000;" parent="c7biSZGZnNbLbAdj1jw6-250" vertex="1">
          <mxGeometry y="80" width="30" height="20" as="geometry" />
        </mxCell>
        <mxCell id="c7biSZGZnNbLbAdj1jw6-249" value="+4" style="text;html=1;align=center;verticalAlign=middle;resizable=0;points=[];autosize=1;strokeColor=none;fillColor=none;fontColor=#000000;" parent="c7biSZGZnNbLbAdj1jw6-250" vertex="1">
          <mxGeometry y="20" width="30" height="20" as="geometry" />
        </mxCell>
        <mxCell id="c7biSZGZnNbLbAdj1jw6-251" value="" style="endArrow=classic;html=1;rounded=0;fontColor=#000000;strokeColor=default;strokeWidth=2;elbow=vertical;edgeStyle=orthogonalEdgeStyle;entryX=0.75;entryY=1;entryDx=0;entryDy=0;exitX=0.5;exitY=1;exitDx=0;exitDy=0;" parent="1" source="c7biSZGZnNbLbAdj1jw6-253" target="c7biSZGZnNbLbAdj1jw6-238" edge="1">
          <mxGeometry width="50" height="50" relative="1" as="geometry">
            <mxPoint x="-470.01" y="-422.9" as="sourcePoint" />
            <mxPoint x="-460.01" y="-702.9" as="targetPoint" />
            <Array as="points">
              <mxPoint x="-405.01" y="-362.9" />
              <mxPoint x="-670.01" y="-362.9" />
              <mxPoint x="-670.01" y="-537.9" />
            </Array>
          </mxGeometry>
        </mxCell>
        <mxCell id="c7biSZGZnNbLbAdj1jw6-252" value="" style="endArrow=classic;html=1;rounded=0;fontColor=#000000;strokeColor=default;strokeWidth=2;elbow=vertical;exitX=1;exitY=0.5;exitDx=0;exitDy=0;" parent="1" source="c7biSZGZnNbLbAdj1jw6-253" edge="1">
          <mxGeometry width="50" height="50" relative="1" as="geometry">
            <mxPoint x="-440.01" y="-442.9" as="sourcePoint" />
            <mxPoint x="-270.01" y="-442.9" as="targetPoint" />
          </mxGeometry>
        </mxCell>
        <mxCell id="c7biSZGZnNbLbAdj1jw6-253" value="" style="ellipse;whiteSpace=wrap;html=1;aspect=fixed;rounded=0;shadow=0;glass=0;sketch=0;fontColor=#990000;fillColor=#000000;strokeWidth=0;" parent="1" vertex="1">
          <mxGeometry x="-410.01" y="-447.9" width="10" height="10" as="geometry" />
        </mxCell>
        <mxCell id="c7biSZGZnNbLbAdj1jw6-254" value="" style="endArrow=none;html=1;rounded=0;fontColor=#000000;strokeColor=default;strokeWidth=2;elbow=vertical;exitX=0.828;exitY=0.504;exitDx=0;exitDy=0;exitPerimeter=0;entryX=0;entryY=0.5;entryDx=0;entryDy=0;" parent="1" source="c7biSZGZnNbLbAdj1jw6-246" target="c7biSZGZnNbLbAdj1jw6-253" edge="1">
          <mxGeometry width="50" height="50" relative="1" as="geometry">
            <mxPoint x="-450.01" y="-402.9" as="sourcePoint" />
            <mxPoint x="-400.01" y="-452.9" as="targetPoint" />
          </mxGeometry>
        </mxCell>
        <mxCell id="c7biSZGZnNbLbAdj1jw6-255" value="0 When others" style="text;html=1;align=center;verticalAlign=middle;resizable=0;points=[];autosize=1;strokeColor=none;fillColor=none;fontColor=#000000;" parent="1" vertex="1">
          <mxGeometry x="-656.0999999999999" y="-502.9" width="90" height="20" as="geometry" />
        </mxCell>
        <mxCell id="c7biSZGZnNbLbAdj1jw6-257" value="ALU" style="swimlane;rounded=0;shadow=0;glass=0;sketch=0;fontColor=#F0F5F7;strokeWidth=1;fillColor=#25607D;startSize=23;" parent="1" vertex="1">
          <mxGeometry x="554.99" y="-710" width="160" height="270" as="geometry" />
        </mxCell>
        <mxCell id="c7biSZGZnNbLbAdj1jw6-258" value="A" style="text;html=1;align=left;verticalAlign=middle;resizable=0;points=[];autosize=1;strokeColor=none;fillColor=none;fontColor=#000000;" parent="c7biSZGZnNbLbAdj1jw6-257" vertex="1">
          <mxGeometry x="10" y="40" width="20" height="20" as="geometry" />
        </mxCell>
        <mxCell id="c7biSZGZnNbLbAdj1jw6-264" value="Zero" style="text;html=1;align=right;verticalAlign=middle;resizable=0;points=[];autosize=1;strokeColor=none;fillColor=none;fontColor=#000000;" parent="c7biSZGZnNbLbAdj1jw6-257" vertex="1">
          <mxGeometry x="110" y="100" width="40" height="20" as="geometry" />
        </mxCell>
        <mxCell id="c7biSZGZnNbLbAdj1jw6-259" value="&lt;font color=&quot;#000000&quot;&gt;B&lt;/font&gt;" style="text;html=1;align=left;verticalAlign=middle;resizable=0;points=[];autosize=1;strokeColor=none;fillColor=none;fontColor=#F0F5F7;" parent="c7biSZGZnNbLbAdj1jw6-257" vertex="1">
          <mxGeometry x="10" y="125" width="20" height="20" as="geometry" />
        </mxCell>
        <mxCell id="c7biSZGZnNbLbAdj1jw6-267" value="Shamt" style="text;html=1;align=left;verticalAlign=middle;resizable=0;points=[];autosize=1;strokeColor=none;fillColor=none;fontColor=#000000;" parent="c7biSZGZnNbLbAdj1jw6-257" vertex="1">
          <mxGeometry x="10" y="220" width="50" height="20" as="geometry" />
        </mxCell>
        <mxCell id="c7biSZGZnNbLbAdj1jw6-266" value="Cout" style="text;html=1;align=right;verticalAlign=middle;resizable=0;points=[];autosize=1;strokeColor=none;fillColor=none;fontColor=#000000;" parent="c7biSZGZnNbLbAdj1jw6-257" vertex="1">
          <mxGeometry x="110" y="220" width="40" height="20" as="geometry" />
        </mxCell>
        <mxCell id="c7biSZGZnNbLbAdj1jw6-268" value="ALUOp" style="text;html=1;align=left;verticalAlign=middle;resizable=0;points=[];autosize=1;strokeColor=none;fillColor=none;fontColor=#000000;" parent="c7biSZGZnNbLbAdj1jw6-257" vertex="1">
          <mxGeometry x="10" y="170" width="50" height="20" as="geometry" />
        </mxCell>
        <mxCell id="c7biSZGZnNbLbAdj1jw6-263" value="Result" style="text;html=1;align=right;verticalAlign=middle;resizable=0;points=[];autosize=1;strokeColor=none;fillColor=none;fontColor=#000000;" parent="c7biSZGZnNbLbAdj1jw6-257" vertex="1">
          <mxGeometry x="100" y="40" width="50" height="20" as="geometry" />
        </mxCell>
        <mxCell id="c7biSZGZnNbLbAdj1jw6-265" value="Overflow" style="text;html=1;align=right;verticalAlign=middle;resizable=0;points=[];autosize=1;strokeColor=none;fillColor=none;fontColor=#000000;" parent="c7biSZGZnNbLbAdj1jw6-257" vertex="1">
          <mxGeometry x="90" y="160" width="60" height="20" as="geometry" />
        </mxCell>
        <mxCell id="c7biSZGZnNbLbAdj1jw6-269" value="" style="endArrow=classic;html=1;rounded=0;fontColor=#000000;strokeColor=#9673a6;strokeWidth=2;elbow=vertical;startArrow=none;fillColor=#e1d5e7;" parent="1" edge="1">
          <mxGeometry width="50" height="50" relative="1" as="geometry">
            <mxPoint x="335.1" y="-660" as="sourcePoint" />
            <mxPoint x="555.1" y="-660" as="targetPoint" />
          </mxGeometry>
        </mxCell>
        <mxCell id="c7biSZGZnNbLbAdj1jw6-270" value="" style="endArrow=classic;html=1;rounded=0;fontColor=#000000;strokeColor=#9673a6;strokeWidth=2;elbow=vertical;fillColor=#e1d5e7;entryX=0.25;entryY=1;entryDx=0;entryDy=0;" parent="1" target="c7biSZGZnNbLbAdj1jw6-275" edge="1">
          <mxGeometry width="50" height="50" relative="1" as="geometry">
            <mxPoint x="335.1" y="-600" as="sourcePoint" />
            <mxPoint x="415.1" y="-604" as="targetPoint" />
          </mxGeometry>
        </mxCell>
        <mxCell id="c7biSZGZnNbLbAdj1jw6-272" value="" style="group" parent="1" connectable="0" vertex="1">
          <mxGeometry x="-630.0049999999999" y="-613.5249999999999" width="37.82000000000005" height="101.25" as="geometry" />
        </mxCell>
        <mxCell id="c7biSZGZnNbLbAdj1jw6-238" value="" style="shape=trapezoid;perimeter=trapezoidPerimeter;whiteSpace=wrap;html=1;fixedSize=1;rounded=0;shadow=0;glass=0;sketch=0;fontColor=#000000;strokeWidth=1;fillColor=#FFFFFF;size=20;rotation=90;" parent="c7biSZGZnNbLbAdj1jw6-272" vertex="1">
          <mxGeometry x="-31.715000000000032" y="31.714999999999975" width="101.25" height="37.82" as="geometry" />
        </mxCell>
        <mxCell id="c7biSZGZnNbLbAdj1jw6-242" value="0" style="text;html=1;align=center;verticalAlign=middle;resizable=0;points=[];autosize=1;strokeColor=none;fillColor=none;fontColor=#000000;" parent="c7biSZGZnNbLbAdj1jw6-272" vertex="1">
          <mxGeometry x="8.904999999999973" y="60.624999999999886" width="20" height="20" as="geometry" />
        </mxCell>
        <mxCell id="c7biSZGZnNbLbAdj1jw6-243" value="1" style="text;html=1;align=center;verticalAlign=middle;resizable=0;points=[];autosize=1;strokeColor=none;fillColor=none;fontColor=#000000;" parent="c7biSZGZnNbLbAdj1jw6-272" vertex="1">
          <mxGeometry x="8.904999999999973" y="20.624999999999943" width="20" height="20" as="geometry" />
        </mxCell>
        <mxCell id="c7biSZGZnNbLbAdj1jw6-274" value="" style="group" parent="1" connectable="0" vertex="1">
          <mxGeometry x="434.995" y="-625.6249999999999" width="37.82000000000005" height="101.25" as="geometry" />
        </mxCell>
        <mxCell id="c7biSZGZnNbLbAdj1jw6-275" value="" style="shape=trapezoid;perimeter=trapezoidPerimeter;whiteSpace=wrap;html=1;fixedSize=1;rounded=0;shadow=0;glass=0;sketch=0;fontColor=#000000;strokeWidth=1;fillColor=#FFFFFF;size=20;rotation=90;" parent="c7biSZGZnNbLbAdj1jw6-274" vertex="1">
          <mxGeometry x="-31.715000000000032" y="31.714999999999975" width="101.25" height="37.82" as="geometry" />
        </mxCell>
        <mxCell id="c7biSZGZnNbLbAdj1jw6-277" value="1" style="text;html=1;align=center;verticalAlign=middle;resizable=0;points=[];autosize=1;strokeColor=none;fillColor=none;fontColor=#000000;" parent="c7biSZGZnNbLbAdj1jw6-274" vertex="1">
          <mxGeometry x="8.904999999999973" y="59.99499999999994" width="20" height="20" as="geometry" />
        </mxCell>
        <mxCell id="c7biSZGZnNbLbAdj1jw6-276" value="0" style="text;html=1;align=center;verticalAlign=middle;resizable=0;points=[];autosize=1;strokeColor=none;fillColor=none;fontColor=#000000;" parent="c7biSZGZnNbLbAdj1jw6-274" vertex="1">
          <mxGeometry x="8.904999999999973" y="19.994999999999834" width="20" height="20" as="geometry" />
        </mxCell>
        <mxCell id="c7biSZGZnNbLbAdj1jw6-278" value="" style="endArrow=classic;html=1;rounded=0;fontColor=#000000;strokeColor=default;strokeWidth=1;elbow=vertical;entryX=0.75;entryY=1;entryDx=0;entryDy=0;edgeStyle=orthogonalEdgeStyle;exitX=0.5;exitY=0;exitDx=0;exitDy=0;" parent="1" source="P_-k0MPRVzmCdLMRWgzc-6" target="c7biSZGZnNbLbAdj1jw6-275" edge="1">
          <mxGeometry width="50" height="50" relative="1" as="geometry">
            <mxPoint x="404.99" y="-545" as="sourcePoint" />
            <mxPoint x="494.99" y="-475" as="targetPoint" />
            <Array as="points">
              <mxPoint x="408.1" y="-550" />
              <mxPoint x="435.1" y="-550" />
            </Array>
          </mxGeometry>
        </mxCell>
        <mxCell id="c7biSZGZnNbLbAdj1jw6-279" value="" style="endArrow=classic;html=1;rounded=0;fontColor=#000000;strokeColor=default;strokeWidth=1;elbow=vertical;exitX=0.5;exitY=0;exitDx=0;exitDy=0;entryX=0;entryY=0.5;entryDx=0;entryDy=0;" parent="1" source="c7biSZGZnNbLbAdj1jw6-275" target="c7biSZGZnNbLbAdj1jw6-257" edge="1">
          <mxGeometry width="50" height="50" relative="1" as="geometry">
            <mxPoint x="654.99" y="-535" as="sourcePoint" />
            <mxPoint x="554.99" y="-571" as="targetPoint" />
          </mxGeometry>
        </mxCell>
        <mxCell id="P_-k0MPRVzmCdLMRWgzc-1" value="" style="endArrow=classic;html=1;rounded=0;entryX=0;entryY=0.5;entryDx=0;entryDy=0;fillColor=#d5e8d4;strokeColor=#8DC26E;strokeWidth=2;" parent="1" target="c7biSZGZnNbLbAdj1jw6-275" edge="1">
          <mxGeometry width="50" height="50" relative="1" as="geometry">
            <mxPoint x="335.1" y="-690" as="sourcePoint" />
            <mxPoint x="474.99" y="-765" as="targetPoint" />
            <Array as="points">
              <mxPoint x="454.1" y="-690" />
            </Array>
          </mxGeometry>
        </mxCell>
        <mxCell id="P_-k0MPRVzmCdLMRWgzc-2" value="ALUSrc" style="edgeLabel;html=1;align=center;verticalAlign=middle;resizable=0;points=[];" parent="P_-k0MPRVzmCdLMRWgzc-1" connectable="0" vertex="1">
          <mxGeometry x="0.8925" y="-1" relative="1" as="geometry">
            <mxPoint as="offset" />
          </mxGeometry>
        </mxCell>
        <mxCell id="P_-k0MPRVzmCdLMRWgzc-3" value="" style="endArrow=classic;html=1;rounded=0;strokeWidth=2;entryX=0;entryY=0.5;entryDx=0;entryDy=0;fillColor=#d5e8d4;strokeColor=#82b366;edgeStyle=orthogonalEdgeStyle;" parent="1" target="c7biSZGZnNbLbAdj1jw6-203" edge="1">
          <mxGeometry width="50" height="50" relative="1" as="geometry">
            <mxPoint x="-65" y="-440" as="sourcePoint" />
            <mxPoint x="54.99" y="-595" as="targetPoint" />
            <Array as="points">
              <mxPoint x="-65" y="-430" />
              <mxPoint x="-65" y="-430" />
            </Array>
          </mxGeometry>
        </mxCell>
        <mxCell id="P_-k0MPRVzmCdLMRWgzc-4" value="RegDst" style="edgeLabel;html=1;align=center;verticalAlign=middle;resizable=0;points=[];" parent="P_-k0MPRVzmCdLMRWgzc-3" connectable="0" vertex="1">
          <mxGeometry x="0.2934" y="-1" relative="1" as="geometry">
            <mxPoint x="1" y="34" as="offset" />
          </mxGeometry>
        </mxCell>
        <mxCell id="P_-k0MPRVzmCdLMRWgzc-5" value="" style="endArrow=classic;html=1;rounded=0;strokeWidth=2;edgeStyle=orthogonalEdgeStyle;fillColor=#d5e8d4;strokeColor=#75A15C;" parent="1" edge="1">
          <mxGeometry width="50" height="50" relative="1" as="geometry">
            <mxPoint x="335.1" y="-710" as="sourcePoint" />
            <mxPoint x="555.1" y="-530" as="targetPoint" />
            <Array as="points">
              <mxPoint x="505.1" y="-710" />
              <mxPoint x="505.1" y="-530" />
            </Array>
          </mxGeometry>
        </mxCell>
        <mxCell id="P_-k0MPRVzmCdLMRWgzc-6" value="" style="ellipse;whiteSpace=wrap;html=1;aspect=fixed;rounded=0;shadow=0;glass=0;sketch=0;fontColor=#990000;fillColor=#000000;strokeWidth=0;" parent="1" vertex="1">
          <mxGeometry x="403.28" y="-350" width="10" height="10" as="geometry" />
        </mxCell>
        <mxCell id="P_-k0MPRVzmCdLMRWgzc-9" value="" style="endArrow=none;html=1;rounded=0;strokeWidth=1;entryX=0;entryY=0.5;entryDx=0;entryDy=0;" parent="1" target="P_-k0MPRVzmCdLMRWgzc-6" edge="1">
          <mxGeometry width="50" height="50" relative="1" as="geometry">
            <mxPoint x="334.99" y="-345" as="sourcePoint" />
            <mxPoint x="374.99" y="-265" as="targetPoint" />
            <Array as="points" />
          </mxGeometry>
        </mxCell>
        <mxCell id="P_-k0MPRVzmCdLMRWgzc-14" value="" style="endArrow=classic;html=1;rounded=0;strokeWidth=1;" parent="1" edge="1">
          <mxGeometry width="50" height="50" relative="1" as="geometry">
            <mxPoint x="714.99" y="-595" as="sourcePoint" />
            <mxPoint x="755.1" y="-595" as="targetPoint" />
          </mxGeometry>
        </mxCell>
        <mxCell id="P_-k0MPRVzmCdLMRWgzc-16" value="" style="endArrow=classic;html=1;rounded=0;strokeWidth=1;exitX=1;exitY=0.5;exitDx=0;exitDy=0;" parent="1" source="P_-k0MPRVzmCdLMRWgzc-6" edge="1">
          <mxGeometry width="50" height="50" relative="1" as="geometry">
            <mxPoint x="404.99" y="-265" as="sourcePoint" />
            <mxPoint x="755.1" y="-345" as="targetPoint" />
          </mxGeometry>
        </mxCell>
        <mxCell id="P_-k0MPRVzmCdLMRWgzc-17" value="DMEM" style="swimlane;rounded=0;shadow=0;glass=0;sketch=0;fontColor=#F0F5F7;fillColor=#25607D;startSize=23;" parent="1" vertex="1">
          <mxGeometry x="1029.9999999999998" y="-665" width="120" height="140" as="geometry" />
        </mxCell>
        <mxCell id="P_-k0MPRVzmCdLMRWgzc-18" value="&lt;font color=&quot;#000000&quot;&gt;Data&lt;/font&gt;" style="text;html=1;align=right;verticalAlign=middle;resizable=0;points=[];autosize=1;strokeColor=none;fillColor=none;fontColor=#F0F5F7;" parent="P_-k0MPRVzmCdLMRWgzc-17" vertex="1">
          <mxGeometry x="70" y="70" width="40" height="20" as="geometry" />
        </mxCell>
        <mxCell id="P_-k0MPRVzmCdLMRWgzc-19" value="Addr [11:2]" style="text;html=1;align=left;verticalAlign=middle;resizable=0;points=[];autosize=1;strokeColor=none;fillColor=none;fontColor=#000000;" parent="P_-k0MPRVzmCdLMRWgzc-17" vertex="1">
          <mxGeometry x="10" y="30" width="70" height="20" as="geometry" />
        </mxCell>
        <mxCell id="P_-k0MPRVzmCdLMRWgzc-20" value="Wr Data" style="text;html=1;align=left;verticalAlign=middle;resizable=0;points=[];autosize=1;strokeColor=none;fillColor=none;" parent="P_-k0MPRVzmCdLMRWgzc-17" vertex="1">
          <mxGeometry x="10" y="110" width="60" height="20" as="geometry" />
        </mxCell>
        <mxCell id="P_-k0MPRVzmCdLMRWgzc-31" value="MemWrite" style="text;html=1;align=left;verticalAlign=middle;resizable=0;points=[];autosize=1;strokeColor=none;fillColor=none;" parent="P_-k0MPRVzmCdLMRWgzc-17" vertex="1">
          <mxGeometry x="5" y="70" width="70" height="20" as="geometry" />
        </mxCell>
        <mxCell id="P_-k0MPRVzmCdLMRWgzc-21" value="" style="endArrow=classic;html=1;rounded=0;strokeWidth=2;edgeStyle=orthogonalEdgeStyle;fillColor=#e1d5e7;strokeColor=#9673a6;" parent="1" edge="1">
          <mxGeometry width="50" height="50" relative="1" as="geometry">
            <mxPoint x="834.99" y="-385" as="sourcePoint" />
            <mxPoint x="1030" y="-545" as="targetPoint" />
            <Array as="points">
              <mxPoint x="935" y="-385" />
              <mxPoint x="935" y="-545" />
              <mxPoint x="1030" y="-545" />
            </Array>
          </mxGeometry>
        </mxCell>
        <mxCell id="P_-k0MPRVzmCdLMRWgzc-25" value="" style="endArrow=classic;html=1;rounded=0;strokeWidth=2;edgeStyle=orthogonalEdgeStyle;fillColor=#e1d5e7;strokeColor=#9673a6;" parent="1" edge="1">
          <mxGeometry width="50" height="50" relative="1" as="geometry">
            <mxPoint x="355.1" y="-600" as="sourcePoint" />
            <mxPoint x="755.1" y="-385" as="targetPoint" />
            <Array as="points">
              <mxPoint x="354.99" y="-385" />
            </Array>
          </mxGeometry>
        </mxCell>
        <mxCell id="P_-k0MPRVzmCdLMRWgzc-28" value="" style="endArrow=classic;html=1;rounded=0;strokeWidth=3;exitX=0.5;exitY=0;exitDx=0;exitDy=0;fillColor=#dae8fc;strokeColor=#6c8ebf;" parent="1" source="c7biSZGZnNbLbAdj1jw6-203" edge="1">
          <mxGeometry width="50" height="50" relative="1" as="geometry">
            <mxPoint x="124.98999999999998" y="-275" as="sourcePoint" />
            <mxPoint x="254.98999999999998" y="-175" as="targetPoint" />
          </mxGeometry>
        </mxCell>
        <mxCell id="rr36gFx3J1xfFyyzJc3Y-1" value="RdFinal" style="edgeLabel;html=1;align=center;verticalAlign=middle;resizable=0;points=[];" parent="P_-k0MPRVzmCdLMRWgzc-28" connectable="0" vertex="1">
          <mxGeometry x="-0.1542" y="-2" relative="1" as="geometry">
            <mxPoint x="8" y="-3" as="offset" />
          </mxGeometry>
        </mxCell>
        <mxCell id="P_-k0MPRVzmCdLMRWgzc-29" value="" style="endArrow=classic;html=1;rounded=0;strokeWidth=2;entryX=0;entryY=0.5;entryDx=0;entryDy=0;exitX=1;exitY=0.5;exitDx=0;exitDy=0;edgeStyle=orthogonalEdgeStyle;fillColor=#d5e8d4;strokeColor=#82b366;" parent="1" source="c7biSZGZnNbLbAdj1jw6-159" target="c7biSZGZnNbLbAdj1jw6-238" edge="1">
          <mxGeometry width="50" height="50" relative="1" as="geometry">
            <mxPoint x="-724.01" y="-865" as="sourcePoint" />
            <mxPoint x="-305.01" y="-675" as="targetPoint" />
            <Array as="points">
              <mxPoint x="1180" y="-935" />
              <mxPoint x="1180" y="-1050" />
              <mxPoint x="-611" y="-1050" />
            </Array>
          </mxGeometry>
        </mxCell>
        <mxCell id="P_-k0MPRVzmCdLMRWgzc-30" value="PCSrc" style="edgeLabel;html=1;align=center;verticalAlign=middle;resizable=0;points=[];" parent="P_-k0MPRVzmCdLMRWgzc-29" connectable="0" vertex="1">
          <mxGeometry x="0.6252" y="3" relative="1" as="geometry">
            <mxPoint x="-3" y="405" as="offset" />
          </mxGeometry>
        </mxCell>
        <mxCell id="P_-k0MPRVzmCdLMRWgzc-34" value="" style="endArrow=classic;html=1;rounded=0;strokeWidth=1;edgeStyle=orthogonalEdgeStyle;" parent="1" edge="1">
          <mxGeometry width="50" height="50" relative="1" as="geometry">
            <mxPoint x="334.99" y="-475" as="sourcePoint" />
            <mxPoint x="554.99" y="-475" as="targetPoint" />
            <Array as="points">
              <mxPoint x="404.99" y="-475" />
              <mxPoint x="404.99" y="-475" />
            </Array>
          </mxGeometry>
        </mxCell>
        <mxCell id="P_-k0MPRVzmCdLMRWgzc-35" value="" style="group" parent="1" connectable="0" vertex="1">
          <mxGeometry x="884.9949999999999" y="-675.0049999999999" width="37.82000000000005" height="101.25" as="geometry" />
        </mxCell>
        <mxCell id="P_-k0MPRVzmCdLMRWgzc-36" value="" style="shape=trapezoid;perimeter=trapezoidPerimeter;whiteSpace=wrap;html=1;fixedSize=1;rounded=0;shadow=0;glass=0;sketch=0;fontColor=#000000;strokeWidth=1;fillColor=#FFFFFF;size=20;rotation=90;" parent="P_-k0MPRVzmCdLMRWgzc-35" vertex="1">
          <mxGeometry x="-31.715000000000032" y="31.714999999999975" width="101.25" height="37.82" as="geometry" />
        </mxCell>
        <mxCell id="P_-k0MPRVzmCdLMRWgzc-37" value="1" style="text;html=1;align=center;verticalAlign=middle;resizable=0;points=[];autosize=1;strokeColor=none;fillColor=none;fontColor=#000000;" parent="P_-k0MPRVzmCdLMRWgzc-35" vertex="1">
          <mxGeometry x="8.904999999999973" y="59.99499999999994" width="20" height="20" as="geometry" />
        </mxCell>
        <mxCell id="P_-k0MPRVzmCdLMRWgzc-38" value="0" style="text;html=1;align=center;verticalAlign=middle;resizable=0;points=[];autosize=1;strokeColor=none;fillColor=none;fontColor=#000000;" parent="P_-k0MPRVzmCdLMRWgzc-35" vertex="1">
          <mxGeometry x="8.904999999999973" y="19.994999999999834" width="20" height="20" as="geometry" />
        </mxCell>
        <mxCell id="P_-k0MPRVzmCdLMRWgzc-39" value="" style="endArrow=classic;html=1;rounded=0;strokeWidth=2;edgeStyle=orthogonalEdgeStyle;entryX=0;entryY=0.5;entryDx=0;entryDy=0;fillColor=#d5e8d4;strokeColor=#82b366;startArrow=none;exitX=0.5;exitY=1;exitDx=0;exitDy=0;" parent="1" source="P_-k0MPRVzmCdLMRWgzc-114" target="P_-k0MPRVzmCdLMRWgzc-36" edge="1">
          <mxGeometry width="50" height="50" relative="1" as="geometry">
            <mxPoint x="903.99" y="-685" as="sourcePoint" />
            <mxPoint x="814.99" y="-745" as="targetPoint" />
          </mxGeometry>
        </mxCell>
        <mxCell id="P_-k0MPRVzmCdLMRWgzc-98" value="Movn AND Zero" style="edgeLabel;html=1;align=center;verticalAlign=middle;resizable=0;points=[];" parent="P_-k0MPRVzmCdLMRWgzc-39" connectable="0" vertex="1">
          <mxGeometry x="0.5012" y="-1" relative="1" as="geometry">
            <mxPoint x="1" y="-11" as="offset" />
          </mxGeometry>
        </mxCell>
        <mxCell id="P_-k0MPRVzmCdLMRWgzc-42" value="" style="endArrow=classic;html=1;rounded=0;strokeColor=#9673a6;strokeWidth=2;entryX=0.75;entryY=1;entryDx=0;entryDy=0;edgeStyle=orthogonalEdgeStyle;fillColor=#e1d5e7;" parent="1" target="P_-k0MPRVzmCdLMRWgzc-36" edge="1">
          <mxGeometry width="50" height="50" relative="1" as="geometry">
            <mxPoint x="834.99" y="-415" as="sourcePoint" />
            <mxPoint x="934.9846199999997" y="-635.0912500000002" as="targetPoint" />
            <Array as="points">
              <mxPoint x="864.99" y="-415" />
              <mxPoint x="864.99" y="-599" />
            </Array>
          </mxGeometry>
        </mxCell>
        <mxCell id="P_-k0MPRVzmCdLMRWgzc-44" value="" style="endArrow=classic;html=1;rounded=0;strokeColor=#000000;strokeWidth=1;edgeStyle=orthogonalEdgeStyle;exitX=0.5;exitY=0;exitDx=0;exitDy=0;" parent="1" source="P_-k0MPRVzmCdLMRWgzc-36" edge="1">
          <mxGeometry width="50" height="50" relative="1" as="geometry">
            <mxPoint x="950" y="-630" as="sourcePoint" />
            <mxPoint x="1030" y="-620" as="targetPoint" />
            <Array as="points">
              <mxPoint x="923" y="-620" />
            </Array>
          </mxGeometry>
        </mxCell>
        <mxCell id="P_-k0MPRVzmCdLMRWgzc-45" value="" style="endArrow=classic;html=1;rounded=0;strokeColor=#82b366;strokeWidth=2;edgeStyle=orthogonalEdgeStyle;fillColor=#d5e8d4;" parent="1" edge="1">
          <mxGeometry width="50" height="50" relative="1" as="geometry">
            <mxPoint x="834.99" y="-715" as="sourcePoint" />
            <mxPoint x="1030" y="-585" as="targetPoint" />
            <Array as="points">
              <mxPoint x="994.9899999999999" y="-715" />
              <mxPoint x="994.9899999999999" y="-585" />
            </Array>
          </mxGeometry>
        </mxCell>
        <mxCell id="P_-k0MPRVzmCdLMRWgzc-59" value="" style="endArrow=classic;html=1;rounded=0;strokeColor=#82b366;strokeWidth=2;fillColor=#d5e8d4;" parent="1" edge="1">
          <mxGeometry width="50" height="50" relative="1" as="geometry">
            <mxPoint x="834.99" y="-995" as="sourcePoint" />
            <mxPoint x="1034.9899999999998" y="-995" as="targetPoint" />
          </mxGeometry>
        </mxCell>
        <mxCell id="P_-k0MPRVzmCdLMRWgzc-60" value="" style="endArrow=classic;html=1;rounded=0;strokeColor=#82b366;strokeWidth=2;fillColor=#d5e8d4;" parent="1" edge="1">
          <mxGeometry width="50" height="50" relative="1" as="geometry">
            <mxPoint x="834.99" y="-975" as="sourcePoint" />
            <mxPoint x="1034.9899999999998" y="-975.34" as="targetPoint" />
          </mxGeometry>
        </mxCell>
        <mxCell id="P_-k0MPRVzmCdLMRWgzc-61" value="" style="endArrow=classic;html=1;rounded=0;strokeColor=#82b366;strokeWidth=2;fillColor=#d5e8d4;" parent="1" edge="1">
          <mxGeometry width="50" height="50" relative="1" as="geometry">
            <mxPoint x="834.99" y="-955" as="sourcePoint" />
            <mxPoint x="1034.9899999999998" y="-955.3400000000001" as="targetPoint" />
          </mxGeometry>
        </mxCell>
        <mxCell id="P_-k0MPRVzmCdLMRWgzc-62" value="" style="endArrow=classic;html=1;rounded=0;strokeColor=#9673a6;strokeWidth=2;fillColor=#e1d5e7;" parent="1" edge="1">
          <mxGeometry width="50" height="50" relative="1" as="geometry">
            <mxPoint x="834.99" y="-935" as="sourcePoint" />
            <mxPoint x="1034.9899999999998" y="-935.0000000000002" as="targetPoint" />
          </mxGeometry>
        </mxCell>
        <mxCell id="P_-k0MPRVzmCdLMRWgzc-63" value="" style="endArrow=classic;html=1;rounded=0;strokeColor=#82b366;strokeWidth=2;fillColor=#d5e8d4;" parent="1" edge="1">
          <mxGeometry width="50" height="50" relative="1" as="geometry">
            <mxPoint x="834.99" y="-915" as="sourcePoint" />
            <mxPoint x="1034.9899999999998" y="-915" as="targetPoint" />
          </mxGeometry>
        </mxCell>
        <mxCell id="P_-k0MPRVzmCdLMRWgzc-64" value="" style="endArrow=classic;html=1;rounded=0;strokeColor=#82b366;strokeWidth=2;fillColor=#d5e8d4;" parent="1" edge="1">
          <mxGeometry width="50" height="50" relative="1" as="geometry">
            <mxPoint x="834.99" y="-896" as="sourcePoint" />
            <mxPoint x="1034.9899999999998" y="-895.69" as="targetPoint" />
          </mxGeometry>
        </mxCell>
        <mxCell id="P_-k0MPRVzmCdLMRWgzc-65" value="" style="endArrow=classic;html=1;rounded=0;strokeColor=#82b366;strokeWidth=2;fillColor=#d5e8d4;" parent="1" edge="1">
          <mxGeometry width="50" height="50" relative="1" as="geometry">
            <mxPoint x="834.99" y="-875" as="sourcePoint" />
            <mxPoint x="1034.9899999999998" y="-875" as="targetPoint" />
          </mxGeometry>
        </mxCell>
        <mxCell id="P_-k0MPRVzmCdLMRWgzc-66" value="" style="endArrow=none;dashed=1;html=1;rounded=0;fontColor=#000000;strokeColor=#82b366;strokeWidth=3;elbow=vertical;fillColor=#d5e8d4;" parent="1" edge="1">
          <mxGeometry width="50" height="50" relative="1" as="geometry">
            <mxPoint x="744.99" y="-680" as="sourcePoint" />
            <mxPoint x="745.1" y="-980" as="targetPoint" />
          </mxGeometry>
        </mxCell>
        <mxCell id="P_-k0MPRVzmCdLMRWgzc-70" value="" style="endArrow=classic;html=1;rounded=0;strokeColor=#000000;strokeWidth=1;" parent="1" edge="1">
          <mxGeometry width="50" height="50" relative="1" as="geometry">
            <mxPoint x="1150" y="-585" as="sourcePoint" />
            <mxPoint x="1234.99" y="-585" as="targetPoint" />
          </mxGeometry>
        </mxCell>
        <mxCell id="l_jW_QR7W9HBfsYtleDY-3" value="s_DMemOut" style="edgeLabel;html=1;align=center;verticalAlign=middle;resizable=0;points=[];" parent="P_-k0MPRVzmCdLMRWgzc-70" connectable="0" vertex="1">
          <mxGeometry x="0.3635" y="2" relative="1" as="geometry">
            <mxPoint x="-18" y="1" as="offset" />
          </mxGeometry>
        </mxCell>
        <mxCell id="P_-k0MPRVzmCdLMRWgzc-73" value="" style="group" parent="1" connectable="0" vertex="1">
          <mxGeometry x="1414.99" y="-665" width="40" height="160" as="geometry" />
        </mxCell>
        <mxCell id="P_-k0MPRVzmCdLMRWgzc-74" value="" style="shape=trapezoid;perimeter=trapezoidPerimeter;whiteSpace=wrap;html=1;fixedSize=1;rounded=0;shadow=0;glass=0;sketch=0;fontColor=#000000;strokeWidth=1;fillColor=#FFFFFF;size=20;rotation=90;" parent="P_-k0MPRVzmCdLMRWgzc-73" vertex="1">
          <mxGeometry x="-60" y="60" width="160" height="40" as="geometry" />
        </mxCell>
        <mxCell id="P_-k0MPRVzmCdLMRWgzc-75" value="00" style="text;html=1;align=center;verticalAlign=middle;resizable=0;points=[];autosize=1;strokeColor=none;fillColor=none;fontColor=#000000;" parent="P_-k0MPRVzmCdLMRWgzc-73" vertex="1">
          <mxGeometry x="5" y="30" width="30" height="20" as="geometry" />
        </mxCell>
        <mxCell id="P_-k0MPRVzmCdLMRWgzc-76" value="01" style="text;html=1;align=center;verticalAlign=middle;resizable=0;points=[];autosize=1;strokeColor=none;fillColor=none;fontColor=#000000;" parent="P_-k0MPRVzmCdLMRWgzc-73" vertex="1">
          <mxGeometry x="5" y="70" width="30" height="20" as="geometry" />
        </mxCell>
        <mxCell id="P_-k0MPRVzmCdLMRWgzc-77" value="10" style="text;html=1;align=center;verticalAlign=middle;resizable=0;points=[];autosize=1;strokeColor=none;fillColor=none;fontColor=#000000;" parent="P_-k0MPRVzmCdLMRWgzc-73" vertex="1">
          <mxGeometry x="5" y="110" width="30" height="20" as="geometry" />
        </mxCell>
        <mxCell id="P_-k0MPRVzmCdLMRWgzc-81" value="" style="endArrow=classic;html=1;rounded=0;strokeColor=#000000;strokeWidth=1;edgeStyle=orthogonalEdgeStyle;" parent="1" edge="1">
          <mxGeometry width="50" height="50" relative="1" as="geometry">
            <mxPoint x="960" y="-620" as="sourcePoint" />
            <mxPoint x="1234.99" y="-675" as="targetPoint" />
            <Array as="points">
              <mxPoint x="960" y="-675" />
            </Array>
          </mxGeometry>
        </mxCell>
        <mxCell id="P_-k0MPRVzmCdLMRWgzc-82" value="" style="endArrow=classic;html=1;rounded=0;strokeColor=#000000;strokeWidth=1;entryX=0.25;entryY=1;entryDx=0;entryDy=0;edgeStyle=orthogonalEdgeStyle;" parent="1" target="P_-k0MPRVzmCdLMRWgzc-74" edge="1">
          <mxGeometry width="50" height="50" relative="1" as="geometry">
            <mxPoint x="1314.99" y="-675" as="sourcePoint" />
            <mxPoint x="1454.99" y="-565" as="targetPoint" />
            <Array as="points">
              <mxPoint x="1384.99" y="-675" />
              <mxPoint x="1384.99" y="-625" />
            </Array>
          </mxGeometry>
        </mxCell>
        <mxCell id="P_-k0MPRVzmCdLMRWgzc-84" value="" style="endArrow=classic;html=1;rounded=0;strokeColor=#000000;strokeWidth=1;entryX=0.5;entryY=1;entryDx=0;entryDy=0;" parent="1" target="P_-k0MPRVzmCdLMRWgzc-74" edge="1">
          <mxGeometry width="50" height="50" relative="1" as="geometry">
            <mxPoint x="1314.99" y="-585" as="sourcePoint" />
            <mxPoint x="1444.99" y="-585" as="targetPoint" />
          </mxGeometry>
        </mxCell>
        <mxCell id="P_-k0MPRVzmCdLMRWgzc-87" value="" style="endArrow=classic;html=1;rounded=0;strokeColor=#000000;strokeWidth=1;entryX=0.75;entryY=1;entryDx=0;entryDy=0;" parent="1" target="P_-k0MPRVzmCdLMRWgzc-74" edge="1">
          <mxGeometry width="50" height="50" relative="1" as="geometry">
            <mxPoint x="1314.99" y="-545" as="sourcePoint" />
            <mxPoint x="1494.99" y="-575" as="targetPoint" />
          </mxGeometry>
        </mxCell>
        <mxCell id="P_-k0MPRVzmCdLMRWgzc-89" value="" style="endArrow=classic;html=1;rounded=0;strokeColor=#000000;strokeWidth=1;" parent="1" edge="1">
          <mxGeometry width="50" height="50" relative="1" as="geometry">
            <mxPoint x="834.99" y="-735" as="sourcePoint" />
            <mxPoint x="1234.99" y="-735" as="targetPoint" />
          </mxGeometry>
        </mxCell>
        <mxCell id="P_-k0MPRVzmCdLMRWgzc-90" value="" style="endArrow=classic;html=1;rounded=0;strokeColor=#82b366;strokeWidth=2;edgeStyle=orthogonalEdgeStyle;entryX=0;entryY=0.5;entryDx=0;entryDy=0;fillColor=#d5e8d4;" parent="1" target="P_-k0MPRVzmCdLMRWgzc-74" edge="1">
          <mxGeometry width="50" height="50" relative="1" as="geometry">
            <mxPoint x="1314.99" y="-735" as="sourcePoint" />
            <mxPoint x="1454.99" y="-725" as="targetPoint" />
          </mxGeometry>
        </mxCell>
        <mxCell id="P_-k0MPRVzmCdLMRWgzc-91" value="" style="endArrow=classic;html=1;rounded=0;strokeColor=#b85450;strokeWidth=3;exitX=0.5;exitY=0;exitDx=0;exitDy=0;edgeStyle=orthogonalEdgeStyle;elbow=vertical;fillColor=#f8cecc;" parent="1" source="P_-k0MPRVzmCdLMRWgzc-74" edge="1">
          <mxGeometry width="50" height="50" relative="1" as="geometry">
            <mxPoint x="1744.99" y="-595" as="sourcePoint" />
            <mxPoint x="54.99" y="-535" as="targetPoint" />
            <Array as="points">
              <mxPoint x="1495.1" y="-585" />
              <mxPoint x="1495.1" y="-10" />
              <mxPoint x="-24.9" y="-10" />
              <mxPoint x="-24.9" y="-535" />
            </Array>
          </mxGeometry>
        </mxCell>
        <mxCell id="P_-k0MPRVzmCdLMRWgzc-151" value="Write Data" style="edgeLabel;html=1;align=center;verticalAlign=middle;resizable=0;points=[];" parent="P_-k0MPRVzmCdLMRWgzc-91" connectable="0" vertex="1">
          <mxGeometry x="-0.9388" y="-3" relative="1" as="geometry">
            <mxPoint y="406" as="offset" />
          </mxGeometry>
        </mxCell>
        <mxCell id="l_jW_QR7W9HBfsYtleDY-1" value="wb_WriteData" style="edgeLabel;html=1;align=center;verticalAlign=middle;resizable=0;points=[];" parent="P_-k0MPRVzmCdLMRWgzc-91" connectable="0" vertex="1">
          <mxGeometry x="-0.9571" y="1" relative="1" as="geometry">
            <mxPoint as="offset" />
          </mxGeometry>
        </mxCell>
        <mxCell id="rr36gFx3J1xfFyyzJc3Y-3" value="RegWrData" style="edgeLabel;html=1;align=center;verticalAlign=middle;resizable=0;points=[];" parent="P_-k0MPRVzmCdLMRWgzc-91" connectable="0" vertex="1">
          <mxGeometry x="0.9196" relative="1" as="geometry">
            <mxPoint x="65" y="-25" as="offset" />
          </mxGeometry>
        </mxCell>
        <mxCell id="P_-k0MPRVzmCdLMRWgzc-92" value="" style="endArrow=classic;html=1;rounded=0;strokeColor=#6c8ebf;strokeWidth=3;elbow=vertical;fillColor=#dae8fc;" parent="1" edge="1">
          <mxGeometry width="50" height="50" relative="1" as="geometry">
            <mxPoint x="334.99" y="-174.47" as="sourcePoint" />
            <mxPoint x="754.99" y="-174.47" as="targetPoint" />
          </mxGeometry>
        </mxCell>
        <mxCell id="P_-k0MPRVzmCdLMRWgzc-93" value="" style="endArrow=classic;html=1;rounded=0;strokeColor=#6c8ebf;strokeWidth=3;elbow=vertical;fillColor=#dae8fc;" parent="1" edge="1">
          <mxGeometry width="50" height="50" relative="1" as="geometry">
            <mxPoint x="834.99" y="-175.13999999999996" as="sourcePoint" />
            <mxPoint x="1234.99" y="-174.47" as="targetPoint" />
          </mxGeometry>
        </mxCell>
        <mxCell id="P_-k0MPRVzmCdLMRWgzc-96" value="" style="endArrow=classic;html=1;rounded=0;strokeColor=#9673a6;strokeWidth=2;elbow=vertical;edgeStyle=orthogonalEdgeStyle;fillColor=#e1d5e7;" parent="1" edge="1">
          <mxGeometry width="50" height="50" relative="1" as="geometry">
            <mxPoint x="375.1" y="-660" as="sourcePoint" />
            <mxPoint x="755.1" y="-415" as="targetPoint" />
            <Array as="points">
              <mxPoint x="380" y="-660" />
              <mxPoint x="380" y="-415" />
            </Array>
          </mxGeometry>
        </mxCell>
        <mxCell id="P_-k0MPRVzmCdLMRWgzc-97" value="" style="endArrow=classic;html=1;rounded=0;strokeColor=#000000;strokeWidth=1;elbow=vertical;" parent="1" edge="1">
          <mxGeometry width="50" height="50" relative="1" as="geometry">
            <mxPoint x="834.99" y="-655" as="sourcePoint" />
            <mxPoint x="884.99" y="-655" as="targetPoint" />
          </mxGeometry>
        </mxCell>
        <mxCell id="P_-k0MPRVzmCdLMRWgzc-99" value="" style="endArrow=classic;html=1;rounded=0;strokeColor=#000000;strokeWidth=3;elbow=vertical;edgeStyle=orthogonalEdgeStyle;" parent="1" edge="1">
          <mxGeometry width="50" height="50" relative="1" as="geometry">
            <mxPoint x="1314.99" y="-785" as="sourcePoint" />
            <mxPoint x="54.99" y="-485" as="targetPoint" />
            <Array as="points">
              <mxPoint x="1344.99" y="-785" />
              <mxPoint x="1344.99" y="-55" />
              <mxPoint x="14.989999999999986" y="-55" />
              <mxPoint x="14.989999999999986" y="-485" />
            </Array>
          </mxGeometry>
        </mxCell>
        <mxCell id="P_-k0MPRVzmCdLMRWgzc-153" value="RegWrite" style="edgeLabel;html=1;align=center;verticalAlign=middle;resizable=0;points=[];" parent="P_-k0MPRVzmCdLMRWgzc-99" connectable="0" vertex="1">
          <mxGeometry x="-0.9627" y="-1" relative="1" as="geometry">
            <mxPoint y="633" as="offset" />
          </mxGeometry>
        </mxCell>
        <mxCell id="l_jW_QR7W9HBfsYtleDY-2" value="wb_RegWrite" style="edgeLabel;html=1;align=center;verticalAlign=middle;resizable=0;points=[];" parent="P_-k0MPRVzmCdLMRWgzc-99" connectable="0" vertex="1">
          <mxGeometry x="-0.7129" y="3" relative="1" as="geometry">
            <mxPoint x="12" y="-12" as="offset" />
          </mxGeometry>
        </mxCell>
        <mxCell id="P_-k0MPRVzmCdLMRWgzc-100" value="" style="endArrow=classic;html=1;rounded=0;strokeColor=#000000;strokeWidth=1;elbow=vertical;" parent="1" edge="1">
          <mxGeometry width="50" height="50" relative="1" as="geometry">
            <mxPoint x="834.99" y="-795" as="sourcePoint" />
            <mxPoint x="884.99" y="-795" as="targetPoint" />
          </mxGeometry>
        </mxCell>
        <mxCell id="P_-k0MPRVzmCdLMRWgzc-101" value="" style="group" parent="1" connectable="0" vertex="1">
          <mxGeometry x="884.9900000000002" y="-820" width="29.99" height="70" as="geometry" />
        </mxCell>
        <mxCell id="P_-k0MPRVzmCdLMRWgzc-102" value="" style="shape=trapezoid;perimeter=trapezoidPerimeter;whiteSpace=wrap;html=1;fixedSize=1;rounded=0;shadow=0;glass=0;sketch=0;fontColor=#000000;strokeWidth=1;fillColor=#FFFFFF;size=20;rotation=90;" parent="P_-k0MPRVzmCdLMRWgzc-101" vertex="1">
          <mxGeometry x="-25.14893839238497" y="21.926419753086403" width="80.28787678476984" height="26.14716049382716" as="geometry" />
        </mxCell>
        <mxCell id="P_-k0MPRVzmCdLMRWgzc-103" value="1" style="text;html=1;align=center;verticalAlign=middle;resizable=0;points=[];autosize=1;strokeColor=none;fillColor=none;fontColor=#000000;" parent="P_-k0MPRVzmCdLMRWgzc-101" vertex="1">
          <mxGeometry x="4.991368323638255" y="41.47802469135798" width="20" height="20" as="geometry" />
        </mxCell>
        <mxCell id="P_-k0MPRVzmCdLMRWgzc-104" value="0" style="text;html=1;align=center;verticalAlign=middle;resizable=0;points=[];autosize=1;strokeColor=none;fillColor=none;fontColor=#000000;" parent="P_-k0MPRVzmCdLMRWgzc-101" vertex="1">
          <mxGeometry x="4.991368323638255" y="13.823703703703588" width="20" height="20" as="geometry" />
        </mxCell>
        <mxCell id="P_-k0MPRVzmCdLMRWgzc-111" value="" style="endArrow=classic;html=1;rounded=0;strokeColor=#000000;strokeWidth=1;elbow=vertical;" parent="1" edge="1">
          <mxGeometry width="50" height="50" relative="1" as="geometry">
            <mxPoint x="840.44" y="-765" as="sourcePoint" />
            <mxPoint x="890.44" y="-765" as="targetPoint" />
          </mxGeometry>
        </mxCell>
        <mxCell id="P_-k0MPRVzmCdLMRWgzc-112" value="!Zero" style="edgeLabel;html=1;align=center;verticalAlign=middle;resizable=0;points=[];" parent="P_-k0MPRVzmCdLMRWgzc-111" connectable="0" vertex="1">
          <mxGeometry x="-0.4291" y="-2" relative="1" as="geometry">
            <mxPoint x="5" y="-2" as="offset" />
          </mxGeometry>
        </mxCell>
        <mxCell id="P_-k0MPRVzmCdLMRWgzc-113" value="" style="endArrow=classic;html=1;rounded=0;strokeColor=#82b366;strokeWidth=2;elbow=vertical;edgeStyle=orthogonalEdgeStyle;fillColor=#d5e8d4;startArrow=none;exitX=0.5;exitY=0;exitDx=0;exitDy=0;" parent="1" source="P_-k0MPRVzmCdLMRWgzc-114" edge="1">
          <mxGeometry width="50" height="50" relative="1" as="geometry">
            <mxPoint x="934.99" y="-695" as="sourcePoint" />
            <mxPoint x="903.99" y="-755" as="targetPoint" />
            <Array as="points">
              <mxPoint x="903.99" y="-735" />
            </Array>
          </mxGeometry>
        </mxCell>
        <mxCell id="P_-k0MPRVzmCdLMRWgzc-118" value="Movn" style="edgeLabel;html=1;align=center;verticalAlign=middle;resizable=0;points=[];" parent="P_-k0MPRVzmCdLMRWgzc-113" connectable="0" vertex="1">
          <mxGeometry x="0.7602" y="-2" relative="1" as="geometry">
            <mxPoint x="-2" y="23" as="offset" />
          </mxGeometry>
        </mxCell>
        <mxCell id="P_-k0MPRVzmCdLMRWgzc-115" value="" style="endArrow=none;html=1;rounded=0;strokeWidth=2;edgeStyle=orthogonalEdgeStyle;fillColor=#d5e8d4;strokeColor=#82b366;entryX=0;entryY=0.5;entryDx=0;entryDy=0;" parent="1" target="P_-k0MPRVzmCdLMRWgzc-114" edge="1">
          <mxGeometry width="50" height="50" relative="1" as="geometry">
            <mxPoint x="834.99" y="-695" as="sourcePoint" />
            <mxPoint x="884.99" y="-695" as="targetPoint" />
          </mxGeometry>
        </mxCell>
        <mxCell id="P_-k0MPRVzmCdLMRWgzc-114" value="" style="ellipse;whiteSpace=wrap;html=1;aspect=fixed;rounded=0;shadow=0;glass=0;sketch=0;fillColor=#8DC26E;strokeWidth=0;strokeColor=#82b366;" parent="1" vertex="1">
          <mxGeometry x="898.9000000000001" y="-700" width="10" height="10" as="geometry" />
        </mxCell>
        <mxCell id="P_-k0MPRVzmCdLMRWgzc-119" value="" style="endArrow=classic;html=1;rounded=0;strokeColor=#000000;strokeWidth=1;elbow=vertical;" parent="1" edge="1">
          <mxGeometry width="50" height="50" relative="1" as="geometry">
            <mxPoint x="914.99" y="-785" as="sourcePoint" />
            <mxPoint x="1234.99" y="-785" as="targetPoint" />
          </mxGeometry>
        </mxCell>
        <mxCell id="P_-k0MPRVzmCdLMRWgzc-121" value="" style="endArrow=classic;html=1;rounded=0;strokeColor=#000000;strokeWidth=1;elbow=vertical;" parent="1" edge="1">
          <mxGeometry width="50" height="50" relative="1" as="geometry">
            <mxPoint x="715.1" y="-660" as="sourcePoint" />
            <mxPoint x="755.1" y="-660" as="targetPoint" />
          </mxGeometry>
        </mxCell>
        <mxCell id="P_-k0MPRVzmCdLMRWgzc-122" value="" style="endArrow=classic;html=1;rounded=0;strokeColor=#82b366;strokeWidth=2;elbow=vertical;entryX=0.5;entryY=0;entryDx=0;entryDy=0;fillColor=#d5e8d4;edgeStyle=orthogonalEdgeStyle;" parent="1" target="c7biSZGZnNbLbAdj1jw6-229" edge="1">
          <mxGeometry width="50" height="50" relative="1" as="geometry">
            <mxPoint x="-60" y="-440" as="sourcePoint" />
            <mxPoint x="175.1" y="-410" as="targetPoint" />
          </mxGeometry>
        </mxCell>
        <mxCell id="P_-k0MPRVzmCdLMRWgzc-123" value="SignExt" style="edgeLabel;html=1;align=center;verticalAlign=middle;resizable=0;points=[];" parent="P_-k0MPRVzmCdLMRWgzc-122" connectable="0" vertex="1">
          <mxGeometry x="-0.3077" relative="1" as="geometry">
            <mxPoint x="95" y="25" as="offset" />
          </mxGeometry>
        </mxCell>
        <mxCell id="P_-k0MPRVzmCdLMRWgzc-154" value="&amp;nbsp;" style="endArrow=classic;html=1;rounded=0;strokeColor=#000000;strokeWidth=3;elbow=vertical;exitX=1.016;exitY=0.214;exitDx=0;exitDy=0;exitPerimeter=0;" parent="1" source="c7biSZGZnNbLbAdj1jw6-132" edge="1">
          <mxGeometry width="50" height="50" relative="1" as="geometry">
            <mxPoint x="1320" y="-830" as="sourcePoint" />
            <mxPoint x="1420" y="-830" as="targetPoint" />
            <Array as="points" />
          </mxGeometry>
        </mxCell>
        <mxCell id="P_-k0MPRVzmCdLMRWgzc-155" value="s_Halt" style="edgeLabel;html=1;align=center;verticalAlign=middle;resizable=0;points=[];" parent="P_-k0MPRVzmCdLMRWgzc-154" connectable="0" vertex="1">
          <mxGeometry x="0.0459" y="-1" relative="1" as="geometry">
            <mxPoint x="-11" y="-1" as="offset" />
          </mxGeometry>
        </mxCell>
        <mxCell id="P_-k0MPRVzmCdLMRWgzc-156" value="" style="endArrow=classic;html=1;rounded=0;strokeColor=#9673a6;strokeWidth=2;elbow=vertical;entryX=-0.019;entryY=0.433;entryDx=0;entryDy=0;entryPerimeter=0;edgeStyle=orthogonalEdgeStyle;fillColor=#e1d5e7;" parent="1" target="P_-k0MPRVzmCdLMRWgzc-57" edge="1">
          <mxGeometry width="50" height="50" relative="1" as="geometry">
            <mxPoint x="380" y="-660" as="sourcePoint" />
            <mxPoint x="650" y="-790" as="targetPoint" />
            <Array as="points">
              <mxPoint x="380" y="-936" />
            </Array>
          </mxGeometry>
        </mxCell>
        <mxCell id="c7biSZGZnNbLbAdj1jw6-166" value="Zero" style="text;html=1;align=left;verticalAlign=middle;resizable=0;points=[];autosize=1;strokeColor=none;fillColor=none;fontColor=#000000;" parent="1" vertex="1">
          <mxGeometry x="1039.9899999999998" y="-830" width="40" height="20" as="geometry" />
        </mxCell>
        <mxCell id="P_-k0MPRVzmCdLMRWgzc-161" value="" style="endArrow=classic;html=1;rounded=0;strokeColor=#000000;strokeWidth=2;elbow=vertical;" parent="1" edge="1">
          <mxGeometry width="50" height="50" relative="1" as="geometry">
            <mxPoint x="840" y="-340" as="sourcePoint" />
            <mxPoint x="920" y="-340" as="targetPoint" />
          </mxGeometry>
        </mxCell>
        <mxCell id="Eu2EeXl4kvYeIC2LtQuc-1" value="" style="endArrow=none;html=1;rounded=0;fontColor=#000000;strokeColor=#82b366;strokeWidth=2;elbow=vertical;endFill=0;shape=link;edgeStyle=orthogonalEdgeStyle;fillColor=#d5e8d4;entryX=0.5;entryY=1;entryDx=0;entryDy=0;startArrow=none;" parent="1" source="Eu2EeXl4kvYeIC2LtQuc-2" target="c7biSZGZnNbLbAdj1jw6-235" edge="1">
          <mxGeometry width="50" height="50" relative="1" as="geometry">
            <mxPoint x="-60" y="-440" as="sourcePoint" />
            <mxPoint x="4.98999999994885" y="-745" as="targetPoint" />
            <Array as="points">
              <mxPoint x="-60" y="-440" />
              <mxPoint x="-60" y="-700" />
              <mxPoint y="-700" />
            </Array>
          </mxGeometry>
        </mxCell>
        <mxCell id="Eu2EeXl4kvYeIC2LtQuc-2" value="" style="ellipse;whiteSpace=wrap;html=1;aspect=fixed;rounded=0;shadow=0;glass=0;sketch=0;fillColor=#82B366;strokeWidth=0;strokeColor=#82b366;" parent="1" vertex="1">
          <mxGeometry x="-65.01000000000002" y="-442.9" width="10" height="10" as="geometry" />
        </mxCell>
        <mxCell id="Eu2EeXl4kvYeIC2LtQuc-3" value="" style="endArrow=none;html=1;rounded=0;fontColor=#000000;strokeColor=#82b366;strokeWidth=2;elbow=vertical;endFill=0;shape=link;edgeStyle=orthogonalEdgeStyle;fillColor=#d5e8d4;entryX=0.5;entryY=1;entryDx=0;entryDy=0;" parent="1" target="Eu2EeXl4kvYeIC2LtQuc-2" edge="1">
          <mxGeometry width="50" height="50" relative="1" as="geometry">
            <mxPoint x="-60" y="-440" as="sourcePoint" />
            <mxPoint x="-0.009999999999990905" y="-750" as="targetPoint" />
            <Array as="points" />
          </mxGeometry>
        </mxCell>
      </root>
    </mxGraphModel>
  </diagram>
</mxfile>
